<svg width="1024" height="1024" xmlns="http://www.w3.org/2000/svg" p-id="197949" version="1.1" class="icon" t="1741458689435">
 <g>
  <title>Layer 1</title>
  <path d="m870.4,0l-716.8,0c-81.92,0 -153.6,71.68 -153.6,153.6l0,716.8c0,81.92 71.68,153.6 153.6,153.6l716.8,0c81.92,0 153.6,-71.68 153.6,-153.6l0,-716.8c0,-81.92 -71.68,-153.6 -153.6,-153.6zm-71.68,849.92c-51.2,51.2 0,0 0,0" fill="#f2e1da" p-id="81107" id="svg_0"/>
  <path id="svg_1" fill="#47c6c0" p-id="197950" d="m820.98724,64.00037l10.432,0.384c31.36,2.368 62.08,16.32 87.424,41.856c27.712,27.968 41.472,62.592 41.152,97.088a166.336,166.336 0 0 1 -17.92,72.64c-9.28,18.368 -18.24,31.296 -27.392,39.744l-5.312,4.544a416.384,416.384 0 0 1 -40.576,29.184l-22.592,13.952l-20.48,11.968l-50.752,28.352a91.968,91.968 0 0 0 -21.12,22.4c-10.368,15.36 -16.192,32.448 -16.192,52.48c0,6.08 0.576,12.288 1.664,18.688c1.728,9.6 2.56,19.008 2.56,27.968c0.064,29.76 -9.216,55.552 -24.32,75.072c-4.8,6.4 -9.984,11.904 -14.912,12.352a111.616,111.616 0 0 1 -1.472,140.992l-6.656,7.296l-166.208,166.4a110.976,110.976 0 0 1 -149.888,6.72l-7.296,-6.656l-274.56,-275.008a111.232,111.232 0 0 1 -6.656,-150.016l6.592,-7.296l166.08,-166.464c21.12,-21.12 49.408,-32.64 78.592,-32.64c25.856,0 50.944,9.088 66.752,25.856c4.608,-5.184 10.048,-10.304 16.512,-15.168a122.88,122.88 0 0 1 75.072,-24.128c8.896,0 18.176,0.896 27.84,2.56a104.155,104.155 0 0 0 18.56,1.664c19.84,0 36.928,-5.824 52.416,-16.192c8.064,-5.44 15.488,-12.608 19.84,-17.92l3.264,-4.48l30.784,-55.104l15.488,-26.048c14.848,-24.192 27.904,-42.88 40.96,-57.6c8.448,-9.216 21.376,-18.304 39.68,-27.52c19.008,-9.344 39.104,-15.488 59.968,-17.344l12.608,-0.576l0.064,0zm-479.68,285.568a57.152,57.152 0 0 0 -34.944,11.776l-5.76,5.12l-6.016,1.728l151.488,151.744a26.88,26.88 0 0 1 -33.6,41.344l-4.224,-3.456l-147.328,-151.68l-126.528,126.848a57.408,57.408 0 0 0 -16.832,40.768c0,12.736 4.096,24.832 11.776,34.944l5.056,5.76l11.2,15.488l108.288,-108.352a26.688,26.688 0 0 1 37.888,0a26.752,26.752 0 0 1 3.456,33.664l-3.456,4.224l-108.16,104.192l66.816,71.232l55.232,-55.296a26.688,26.688 0 0 1 37.888,0a26.752,26.752 0 0 1 3.456,33.664l-3.456,4.224l-55.232,51.072l68.224,72.512l108.16,-108.288a26.688,26.688 0 0 1 37.888,0a26.752,26.752 0 0 1 3.456,33.664l-3.456,4.224l-108.16,104.256l14.464,14.464a57.28,57.28 0 0 0 40.768,16.832a57.152,57.152 0 0 0 34.88,-11.712l5.76,-5.12l126.592,-122.56l-142.912,-143.104a26.752,26.752 0 0 1 33.6,-41.344l4.224,3.392l134.592,134.784l4.032,8.256l0.128,0.064l5.952,-5.952a57.152,57.152 0 0 0 16.96,-40.832a57.28,57.28 0 0 0 -11.776,-35.008l-5.056,-5.76l-274.432,-274.88l-6.08,-5.248a57.152,57.152 0 0 0 -34.752,-11.712l-0.064,0.064zm479.68,-231.808a107.328,107.328 0 0 0 -46.208,11.264a114.368,114.368 0 0 0 -25.728,16a330.816,330.816 0 0 0 -31.872,44.16l-14.72,24.448l-7.744,13.504l-28.544,51.008l-0.832,1.28c-7.872,11.52 -20.224,24.256 -36.736,35.584a145.28,145.28 0 0 1 -82.56,25.472a160,160 0 0 1 -18.56,-1.024l-9.28,-1.408a100.992,100.992 0 0 0 -18.56,-1.728a78.08,78.08 0 0 0 -48.768,15.552l-4.288,3.456l219.072,222.08l0.64,-0.512a55.168,55.168 0 0 0 8.64,-9.152a67.84,67.84 0 0 0 13.312,-42.56c0,-3.648 -0.256,-7.68 -0.768,-11.904l-0.96,-6.656a159.552,159.552 0 0 1 -2.56,-27.968c0,-31.104 9.536,-59.2 25.472,-82.624c11.264,-16.512 23.936,-28.864 35.52,-36.8l9.024,-5.44l40.384,-22.336l10.112,-5.76c32,-18.24 59.52,-36.416 74.368,-49.664l1.408,-1.664a129.472,129.472 0 0 0 13.824,-22.08c7.68,-15.552 12.416,-32.896 12.416,-48.768c-0.192,-22.4 -7.68,-40.96 -26.24,-59.968c-18.88,-18.304 -37.184,-25.6 -59.264,-25.792z"/>
 </g>
</svg>