<svg width="1024" height="1024" xmlns="http://www.w3.org/2000/svg" t="1741619348383" class="icon" version="1.1" p-id="7935">
 <g>
  <title>Layer 1</title>
  <path id="svg_0" p-id="81107" fill="#a0bbff" d="m870.4,0l-716.8,0c-81.92,0 -153.6,71.68 -153.6,153.6l0,716.8c0,81.92 71.68,153.6 153.6,153.6l716.8,0c81.92,0 153.6,-71.68 153.6,-153.6l0,-716.8c0,-81.92 -71.68,-153.6 -153.6,-153.6zm-71.68,849.92c-51.2,51.2 0,0 0,0"/>
  <path d="m834.86834,485.72381l-0.64622,-4.35156c-16.30131,-144.95916 -154.08702,-258.17775 -321.71825,-258.17775c-174.71352,0 -317.06566,122.99656 -323.14849,276.74984l0.19008,0.1892l-0.24178,0.61302c-4.5492,133.42539 81.19638,251.91137 243.22727,291.28057s136.04529,-65.99373 121.62225,-73.72831s-24.60705,-28.62251 -11.87273,-52.65876s23.711,-22.70426 83.05742,-23.70325c160.92805,2.34611 199.0104,-99.2025 207.91925,-141.99246l0.45668,-1.89198c2.24868,-29.09084 -0.34465,10.11817 0.68926,-8.91522c4.63518,-22.02281 -44.12059,-70.19953 0.46526,-3.41332l0,-0.00002zm-522.56386,27.43441a58.48483,51.37218 0 1 1 57.83002,-51.38732a58.14019,51.06946 0 0 1 -57.83002,51.37218l0,0.01514zm106.9235,-124.11664a58.19189,51.11487 0 1 1 57.74386,-51.13a57.98511,50.93323 0 0 1 -57.74386,51.11487l0,0.01514l0,-0.00001zm180.93421,3.02724c-31.93058,0 -57.79556,-23.06753 -57.79556,-51.463s25.84774,-51.463 57.79556,-51.463s57.79556,23.06753 57.79556,51.463s-25.89944,51.43273 -57.74386,51.43273l-0.0517,0.03027zm112.64447,121.08941a58.48483,51.37218 0 1 1 57.95064,-51.37218a58.20912,51.13 0 0 1 -57.89895,51.35704l-0.0517,0.01514l0.00001,0z" fill="#DD4F47" p-id="7937" id="svg_2"/>
 </g>

</svg>