<svg width="1024" height="1024" xmlns="http://www.w3.org/2000/svg" t="1741460883644" class="icon" version="1.1" p-id="225057">
 <g>
  <title>Layer 1</title>
  <path id="svg_0" p-id="81107" fill="#dbe2ef" d="m871.4,-3l-716.8,0c-81.92,0 -153.6,71.68 -153.6,153.6l0,716.8c0,81.92 71.68,153.6 153.6,153.6l716.8,0c81.92,0 153.6,-71.68 153.6,-153.6l0,-716.8c0,-81.92 -71.68,-153.6 -153.6,-153.6z"/>
  <path d="m985.89995,328.425l-0.26,-0.52l-0.1,-0.56l0,-0.37l-0.1,-0.22a11.54,11.54 0 0 0 -1.13,-2.89l-88.81,-163.37l0,-0.17c-11.16,-26.07 -43.75,-46.25 -83,-46.29l-602.67,0c-38.52,0 -69.21,19.21 -80.17,44.89l-0.1,0.24l-90.2,165.95a19.94,19.94 0 0 0 -0.72,2.42l-0.1,0.37l-0.15,0.32a102.88,102.88 0 0 0 -8.1,39.64c0.05,46.32 32.22,88.83 84,111.11l6,2.51c20.7,7.91 44.83,11.94 71.77,11.94c47.8,-0.17 122.68,-24.59 153.31,-53.16l6.09,-5.72l6.09,5.72c56.54,36.58 107.81,49.42 155.3,49.7c47.33,-0.32 105.36,-13.1 152,-49.85l6.1,-5.64l6.09,5.64c30.58,28.66 107.25,53 155.2,53c29.45,-0.17 55.48,-4.92 77.29,-14.36c52,-22.29 84.18,-65 84.18,-111.45a99.92,99.92 0 0 0 -7.81,-38.88zm-76.68,120.9c-16,7.26 -35.75,11.06 -58.67,11.13c-42.68,0 -115,-25.36 -137.56,-55.77l-0.33,-0.32l-0.21,-0.41a35,35 0 0 0 -7.32,-9.7c-4.22,-4 -12,-10.48 -25,-10.48a36.46,36.46 0 0 0 -24.92,10.53l-0.21,0.17a40.32,40.32 0 0 0 -7.26,9.6l-0.44,0.63c-22.34,30.26 -92.36,57.45 -134.4,57.71c-42.35,-0.17 -115.65,-28.41 -138.13,-58.74l-0.22,-0.27l-0.27,-0.42c-1.3,-2.3 -5.39,-6.7 -8.42,-9.52l-0.11,-0.14c-5.53,-5.48 -13.25,-10.58 -24,-10.58a33.4,33.4 0 0 0 -23.14,9.44l-0.22,0.19a49.24,49.24 0 0 0 -8.7,11.1l-0.22,0.46l-0.33,0.41c-22.59,30.2 -85.92,54.57 -128.39,54.67c-21.55,0 -40.29,-3.28 -55.68,-9.7l-0.1,0l-1.91,-0.92c-40,-17.73 -56.74,-42.17 -56.8,-80a88,88 0 0 1 6.66,-33.34a8.12,8.12 0 0 0 0.6,-1.72l0.16,-0.58l87.21,-167.88c5.79,-13.95 12,-21 32.57,-21l632.4,0l0.22,0.05c9.15,0.46 22.17,1.63 30.73,22.12l93.25,169.3l0.11,0.59c0.22,0.77 0.54,1.62 0.76,2.4a87.51,87.51 0 0 1 6.71,33.17c0.12,37.35 -8.99,59.81 -48.42,77.82zm-98.78,460.64l-594.08,0c-36.46,0 -66.12,-26.57 -66.12,-67.22l0,-252.78c0,-22.63 4.54,-38.74 24.66,-38.74s24.62,16.1 24.62,38.74l0,257.16c0,9 6.48,16.29 14.48,16.29l600.91,0c8,0 14.48,-7.3 14.48,-16.29l0,-257.16c0,-22.63 4.5,-37.61 24.62,-37.61s22.55,15 22.55,37.61l0,252.75c0,40.65 -29.66,67.22 -66.12,67.22l0,0.03z" p-id="225058" fill="#3f72af" id="svg_1"/>
  <path d="m512.94,544.00002l-149.93998,72.628l149.93998,74.796l149.93998,-74.796l-149.93998,-72.628z" fill="#ff7575" p-id="18616" id="svg_2"/>
  <path d="m514.00001,694.79896l149.112,-74.79895l0,148.80887l-149.112,73.06311l0,-147.07303z" fill="#3bd33b" p-id="18617" id="svg_3"/>
  <path d="m362.18491,622l147.92709,73.14808l-0.18491,147.23596l-147.92709,-71.4251l0.18491,-148.95893l0,-0.00001z" fill="#28d0ff" p-id="18618" id="svg_4"/>
 </g>

</svg>