<svg width="1024" height="1024" xmlns="http://www.w3.org/2000/svg" p-id="6748" version="1.1" class="icon" t="1741618658598">
 <g>
  <title>Layer 1</title>
  <path id="svg_0" p-id="81107" fill="#ecf2f9" d="m870.4,0l-716.8,0c-81.92,0 -153.6,71.68 -153.6,153.6l0,716.8c0,81.92 71.68,153.6 153.6,153.6l716.8,0c81.92,0 153.6,-71.68 153.6,-153.6l0,-716.8c0,-81.92 -71.68,-153.6 -153.6,-153.6zm-71.68,849.92c-51.2,51.2 0,0 0,0"/>
  <path id="svg_1" p-id="6749" fill="#3198FF" d="m211.328,293.76l265.408,-156.16a69.44,69.44 0 0 1 70.56,0l265.44,156.16a72.096,72.096 0 0 1 35.264,62.176l0,312.128c0,25.664 -13.44,49.376 -35.264,62.208l-265.44,156.096c-21.824,12.832 -48.736,12.832 -70.56,0l-265.408,-156.096a72.064,72.064 0 0 1 -35.328,-62.208l0,-312.16c0,-25.664 13.504,-49.344 35.328,-62.176l0,0.032zm302.4,533.344l267.072,-159.04l-1.664,-315.104l-268.8,-156.064l-267.104,159.008l1.664,315.104l265.44,156.064c0.512,0.32 1.088,0.48 1.696,0.48l1.696,-0.448z"/>
  <path id="svg_2" p-id="6750" fill="#3198FF" d="m495.2,467.904l-105.28,-61.92a34.56,34.56 0 0 1 0,-59.264l105.28,-61.92a33.056,33.056 0 0 1 33.6,0l105.28,61.92c22.4,13.152 22.4,46.08 0,59.264l-105.28,61.92c-10.4,6.08 -23.2,6.08 -33.6,0zm-12.256,80.928l0,123.84c0,26.336 -28,42.816 -50.4,29.632l-105.312,-61.92a34.336,34.336 0 0 1 -16.832,-29.632l0,-123.84c0,-26.304 28,-42.784 50.4,-29.6l105.344,61.888c10.4,6.112 16.8,17.408 16.8,29.632zm74.976,-29.632l105.28,-61.888c22.4,-13.184 50.4,3.296 50.4,29.632l0,123.84c0,12.192 -6.4,23.488 -16.832,29.6l-105.28,61.92c-22.4,13.152 -50.4,-3.296 -50.4,-29.632l0,-123.84c0,-12.224 6.4,-23.52 16.832,-29.632z"/>
 </g>

</svg>