<svg width="1024" height="1024" xmlns="http://www.w3.org/2000/svg" p-id="200399" version="1.1" class="icon" t="1741458838348">
 <g>
  <title>Layer 1</title>
  <path d="m870.4,0l-716.8,0c-81.92,0 -153.6,71.68 -153.6,153.6l0,716.8c0,81.92 71.68,153.6 153.6,153.6l716.8,0c81.92,0 153.6,-71.68 153.6,-153.6l0,-716.8c0,-81.92 -71.68,-153.6 -153.6,-153.6zm-71.68,849.92c-51.2,51.2 0,0 0,0" fill="#3888ae" p-id="81107" id="svg_0"/>
  <path id="svg_1" p-id="200400" fill="#4c4c4c" d="m512,636.54054c91.32973,0 166.05405,-74.72432 166.05405,-166.05405l0,-166.05406c0,-91.32973 -74.72432,-166.05405 -166.05405,-166.05405s-166.05405,74.72432 -166.05405,166.05405l0,166.05406c0,91.32973 74.72432,166.05405 166.05405,166.05405z"/>
  <path id="svg_2" p-id="200401" fill="#e9e7ef" d="m484.32432,857.94595l0,-138.37838l55.35136,0l0,138.37838l-55.35136,0z"/>
  <path id="svg_3" p-id="200402" fill="#e9e7ef" d="m608.86487,899.45946l-193.72974,0l0,-55.35135l193.72974,0l0,55.35135zm179.89189,-456.64865l0,27.67568c0,152.21621 -124.54054,276.75675 -276.75676,276.75675s-276.75676,-124.54054 -276.75676,-276.75675l0,-27.67568l55.35136,0l0,27.67568c0,121.77297 99.63243,221.4054 221.4054,221.4054s221.4054,-99.63243 221.4054,-221.4054l0,-27.67568l55.35136,0z"/>
 </g>
</svg>