<svg t="1741462198647" class="icon" viewBox="0 0 1024 1024" version="1.1" xmlns="http://www.w3.org/2000/svg" p-id="226117" width="1024" height="1024">
  <path id="svg_0" p-id="81107" fill="#ffffff" d="m870.4,0l-716.8,0c-81.92,0 -153.6,71.68 -153.6,153.6l0,716.8c0,81.92 71.68,153.6 153.6,153.6l716.8,0c81.92,0 153.6,-71.68 153.6,-153.6l0,-716.8c0,-81.92 -71.68,-153.6 -153.6,-153.6zm-71.68,849.92c-51.2,51.2"/>
  <path d="M96.996 60.644h182.272a17.351 17.351 0 0 1 12.288 5.12l19.456 19.399c1.65 1.593 2.844 3.47 3.754 5.689a17.18 17.18 0 0 1 1.366 6.599V279.78c0 2.275-0.456 4.437-1.366 6.599v0.057a17.351 17.351 0 0 1-3.754 5.688l-19.4 19.4a17.18 17.18 0 0 1-12.288 5.12H96.94a17.18 17.18 0 0 1-6.6-1.366h-0.056a17.351 17.351 0 0 1-5.69-3.754l-19.398-19.456a17.18 17.18 0 0 1-5.12-12.288V97.45a17.351 17.351 0 0 1 5.12-12.287l19.399-19.456a17.18 17.18 0 0 1 12.288-5.12zM274.26 90.226H102l-12.287 12.288v172.26l12.288 12.344h172.26l12.287-12.345v-172.26L274.26 90.226zM96.996 380.586h182.272a17.351 17.351 0 0 1 12.288 5.12l19.456 19.457c1.65 1.593 2.844 3.47 3.754 5.689a17.18 17.18 0 0 1 1.366 6.599V599.78c0 2.275-0.456 4.437-1.366 6.599v0.057a17.351 17.351 0 0 1-3.754 5.688l-19.4 19.4a17.18 17.18 0 0 1-12.288 5.12H96.94a17.18 17.18 0 0 1-6.6-1.366h-0.056a17.351 17.351 0 0 1-5.69-3.754l-19.398-19.456a17.18 17.18 0 0 1-5.12-12.288V417.45a17.351 17.351 0 0 1 5.12-12.287l19.399-19.456a17.18 17.18 0 0 1 12.288-5.12zM274.26 410.17H102l-12.287 12.345v172.202l12.288 12.345h172.26l12.287-12.345V422.514l-12.288-12.288zM96.996 700.644h182.272a17.351 17.351 0 0 1 12.288 5.12l19.456 19.399c1.65 1.593 2.844 3.47 3.754 5.689a17.18 17.18 0 0 1 1.366 6.599V919.78c0 2.275-0.456 4.437-1.366 6.599v0.057a17.351 17.351 0 0 1-3.754 5.688l-19.4 19.4a17.18 17.18 0 0 1-12.288 5.12H96.94a17.18 17.18 0 0 1-6.6-1.366h-0.056a17.351 17.351 0 0 1-5.69-3.754l-19.398-19.456a17.18 17.18 0 0 1-5.12-12.288V737.45a17.351 17.351 0 0 1 5.12-12.287l19.399-19.456a17.18 17.18 0 0 1 12.288-5.12z m177.265 29.582h-172.26l-12.287 12.288v172.202l12.288 12.345h172.26l12.287-12.345V742.514l-12.288-12.288zM416.996 60.644h182.272a17.351 17.351 0 0 1 12.288 5.12l19.456 19.399c1.65 1.593 2.844 3.47 3.754 5.689a17.18 17.18 0 0 1 1.366 6.599V279.78c0 2.275-0.456 4.437-1.366 6.599v0.057a17.351 17.351 0 0 1-3.754 5.688l-19.4 19.4a17.18 17.18 0 0 1-12.288 5.12H416.996a17.18 17.18 0 0 1-6.6-1.366h-0.056a17.351 17.351 0 0 1-5.69-3.754l-19.398-19.456a17.18 17.18 0 0 1-5.12-12.288V97.45a17.351 17.351 0 0 1 5.12-12.287l19.399-19.456a17.18 17.18 0 0 1 12.288-5.12zM594.26 90.226H422l-12.287 12.288v172.26l12.288 12.344h172.26l12.287-12.345v-172.26L594.26 90.226z m-177.265 290.36h182.272a17.351 17.351 0 0 1 12.288 5.12l19.456 19.457c1.65 1.593 2.844 3.47 3.754 5.689a17.18 17.18 0 0 1 1.366 6.599V599.78c0 2.275-0.456 4.437-1.366 6.599v0.057a17.351 17.351 0 0 1-3.754 5.688l-19.4 19.4a17.18 17.18 0 0 1-12.288 5.12H416.996a17.18 17.18 0 0 1-6.6-1.366h-0.056a17.351 17.351 0 0 1-5.69-3.754l-19.398-19.456a17.18 17.18 0 0 1-5.12-12.288V417.45a17.351 17.351 0 0 1 5.12-12.287l19.399-19.456a17.18 17.18 0 0 1 12.288-5.12zM594.26 410.17H422l-12.287 12.345v172.202l12.288 12.345h172.26l12.287-12.345V422.514l-12.288-12.288zM416.996 700.644h182.272a17.351 17.351 0 0 1 12.288 5.12l19.456 19.399c1.65 1.593 2.844 3.47 3.754 5.689a17.18 17.18 0 0 1 1.366 6.599V919.78c0 2.275-0.456 4.437-1.366 6.599v0.057a17.351 17.351 0 0 1-3.754 5.688l-19.4 19.4a17.18 17.18 0 0 1-12.288 5.12H416.996a17.18 17.18 0 0 1-6.6-1.366h-0.056a17.351 17.351 0 0 1-5.69-3.754l-19.398-19.456a17.18 17.18 0 0 1-5.12-12.288V737.45a17.351 17.351 0 0 1 5.12-12.287l19.399-19.456a17.18 17.18 0 0 1 12.288-5.12z m177.265 29.582h-172.26l-12.287 12.288v172.202l12.288 12.345h172.26l12.287-12.345V742.514l-12.288-12.288zM736.996 60.644h182.272a17.351 17.351 0 0 1 12.288 5.12l19.456 19.399c1.65 1.593 2.844 3.47 3.754 5.689a17.18 17.18 0 0 1 1.366 6.599V279.78c0 2.275-0.456 4.437-1.366 6.599v0.057a17.351 17.351 0 0 1-3.754 5.688l-19.4 19.4a17.18 17.18 0 0 1-12.288 5.12H736.996a17.18 17.18 0 0 1-6.6-1.366h-0.056a17.351 17.351 0 0 1-5.69-3.754l-19.398-19.456a17.18 17.18 0 0 1-5.12-12.288V97.45a17.351 17.351 0 0 1 5.12-12.287l19.399-19.456a17.18 17.18 0 0 1 12.288-5.12zM914.26 90.226H742l-12.287 12.288v172.26l12.288 12.344h172.26l12.287-12.345v-172.26L914.26 90.226z m-177.265 290.36h182.272a17.351 17.351 0 0 1 12.288 5.12l19.456 19.457c1.65 1.593 2.844 3.47 3.754 5.689a17.18 17.18 0 0 1 1.366 6.599V599.78c0 2.275-0.456 4.437-1.366 6.599v0.057a17.351 17.351 0 0 1-3.754 5.688l-19.4 19.4a17.18 17.18 0 0 1-12.288 5.12H736.996a17.18 17.18 0 0 1-6.6-1.366h-0.056a17.351 17.351 0 0 1-5.69-3.754l-19.398-19.456a17.18 17.18 0 0 1-5.12-12.288V417.45a17.351 17.351 0 0 1 5.12-12.287l19.399-19.456a17.18 17.18 0 0 1 12.288-5.12zM914.26 410.17H742l-12.287 12.345v172.202l12.288 12.345h172.26l12.287-12.345V422.514l-12.288-12.288zM736.996 700.644h182.272a17.351 17.351 0 0 1 12.288 5.12l19.456 19.399c1.65 1.593 2.844 3.47 3.754 5.689a17.18 17.18 0 0 1 1.366 6.599V919.78c0 2.275-0.456 4.437-1.366 6.599v0.057a17.351 17.351 0 0 1-3.754 5.688l-19.4 19.4a17.18 17.18 0 0 1-12.288 5.12H736.996a17.18 17.18 0 0 1-6.6-1.366h-0.056a17.351 17.351 0 0 1-5.69-3.754l-19.398-19.456a17.18 17.18 0 0 1-5.12-12.288V737.45a17.351 17.351 0 0 1 5.12-12.287l19.399-19.456a17.18 17.18 0 0 1 12.288-5.12z m177.265 29.582h-172.26l-12.287 12.288v172.202l12.288 12.345h172.26l12.287-12.345V742.514l-12.288-12.288z" p-id="226118" fill="#1296db"></path>
</svg>