<svg width="1024" height="1024" xmlns="http://www.w3.org/2000/svg" p-id="13750" version="1.1" class="icon" t="1741621892300">

 <g>
  <title>Layer 1</title>
  <path d="m870.4,0l-716.8,0c-81.92,0 -153.6,71.68 -153.6,153.6l0,716.8c0,81.92 71.68,153.6 153.6,153.6l716.8,0c81.92,0 153.6,-71.68 153.6,-153.6l0,-716.8c0,-81.92 -71.68,-153.6 -153.6,-153.6zm-71.68,849.92c-51.2,51.2 0,0 0,0" fill="none" p-id="81107" id="svg_0"/>
  <path id="svg_1" p-id="13751" fill="#9DE8F7" d="m448.064,479.744a58.496,58.496 0 0 1 -58.496,58.56l-311.36,0a58.56,58.56 0 0 1 -58.56,-58.56l0,-287.232c0,-32.32 26.24,-58.56 58.56,-58.56l311.36,0c32.32,0 58.496,26.24 58.496,58.56l0,287.232z"/>
  <path id="svg_2" p-id="13752" d="m389.568,554.304l-311.36,0a74.624,74.624 0 0 1 -74.56,-74.56l0,-287.232c0,-41.152 33.408,-74.56 74.56,-74.56l311.36,0c41.088,0 74.496,33.408 74.496,74.56l0,287.232c0,41.152 -33.408,74.56 -74.496,74.56zm-311.36,-404.352a42.624,42.624 0 0 0 -42.56,42.56l0,287.232c0,23.488 19.072,42.56 42.56,42.56l311.36,0a42.56,42.56 0 0 0 42.496,-42.56l0,-287.232a42.56,42.56 0 0 0 -42.496,-42.56l-311.36,0z"/>
  <path id="svg_3" p-id="13753" fill="#FAD97F" d="m448.064,935.104a58.496,58.496 0 0 1 -58.496,58.624l-311.36,0a58.56,58.56 0 0 1 -58.56,-58.624l0,-287.04c0,-32.384 26.24,-58.688 58.56,-58.688l311.36,0c32.32,0 58.496,26.304 58.496,58.688l0,287.04z"/>
  <path id="svg_4" p-id="13754" d="m389.568,1009.728l-311.36,0a74.688,74.688 0 0 1 -74.56,-74.624l0,-287.04c0,-41.216 33.408,-74.688 74.56,-74.688l311.36,0c41.088,0 74.496,33.472 74.496,74.688l0,287.04c0,41.152 -33.408,74.624 -74.496,74.624zm-311.36,-404.352a42.688,42.688 0 0 0 -42.56,42.688l0,287.04c0,23.488 19.072,42.624 42.56,42.624l311.36,0a42.624,42.624 0 0 0 42.496,-42.624l0,-287.04a42.624,42.624 0 0 0 -42.496,-42.688l-311.36,0z"/>
  <path id="svg_5" p-id="13755" fill="#9DF4A7" d="m938.752,935.104a58.496,58.496 0 0 1 -58.56,58.624l-311.232,0a58.624,58.624 0 0 1 -58.624,-58.624l0,-287.04c0,-32.384 26.304,-58.688 58.624,-58.688l311.232,0c32.448,0 58.56,26.304 58.56,58.688l0,287.04z"/>
  <path id="svg_6" p-id="13756" d="m880.192,1009.728l-311.232,0a74.688,74.688 0 0 1 -74.624,-74.624l0,-287.04c0,-41.216 33.472,-74.688 74.624,-74.688l311.232,0c41.152,0 74.56,33.472 74.56,74.688l0,287.04c0,41.152 -33.408,74.624 -74.56,74.624zm-311.232,-404.352a42.688,42.688 0 0 0 -42.624,42.688l0,287.04c0,23.488 19.136,42.624 42.624,42.624l311.232,0a42.624,42.624 0 0 0 42.56,-42.624l0,-287.04a42.624,42.624 0 0 0 -42.56,-42.688l-311.232,0z"/>
  <path id="svg_7" p-id="13757" fill="#F2385A" d="m988.608,232.384a53.888,53.888 0 0 1 0,76.032l-202.048,202.112a53.952,53.952 0 0 1 -76.032,0l-186.432,-186.496a53.76,53.76 0 0 1 0,-76.032l202.048,-201.92a53.76,53.76 0 0 1 76.032,0l186.432,186.304z"/>
  <path id="svg_8" p-id="13758" d="m748.48,542.208c-18.624,0 -36.096,-7.232 -49.344,-20.352l-186.368,-186.56a69.952,69.952 0 0 1 0,-98.688l202.048,-201.984a71.424,71.424 0 0 1 98.688,0l186.432,186.432c13.12,13.184 20.352,30.656 20.352,49.344s-7.232,36.16 -20.352,49.344l-202.048,202.112a69.76,69.76 0 0 1 -49.408,20.352zm15.616,-495.936a37.632,37.632 0 0 0 -26.688,11.072l-201.984,201.92a37.888,37.888 0 0 0 0,53.44l186.368,186.496a38.976,38.976 0 0 0 53.504,0l201.984,-202.112c7.104,-7.104 11.008,-16.576 11.008,-26.688s-3.904,-19.584 -11.008,-26.688l-186.432,-186.368a37.312,37.312 0 0 0 -26.752,-11.072z"/>
 </g>
</svg>