<svg width="1024" height="1024" xmlns="http://www.w3.org/2000/svg" p-id="222262" version="1.1" class="icon" t="1741459853003">
 <g>
  <title>Layer 1</title>
  <path id="svg_0" p-id="81107" fill="#deecfc" d="m870.4,0l-716.8,0c-81.92,0 -153.6,71.68 -153.6,153.6l0,716.8c0,81.92 71.68,153.6 153.6,153.6l716.8,0c81.92,0 153.6,-71.68 153.6,-153.6l0,-716.8c0,-81.92 -71.68,-153.6 -153.6,-153.6zm-71.68,849.92c-51.2,51.2 0,0 0,0"/>
  <path fill="#ffbe00" id="svg_1" p-id="222263" d="m853.33328,255.99998c46.93334,0 85.33334,38.4 85.33334,85.33333l0,426.66667c0,46.93333 -38.4,85.33333 -85.33334,85.33333l-682.66666,0a85.33333,85.33333 0 0 1 -85.33334,-85.33333l0,-512"/>
  <path fill="#ead68f" id="svg_2" p-id="222264" d="m85.33333,255.99998c0,-47.36 37.97334,-85.33333 85.33334,-85.33333l256,0l85.33333,85.33333l341.33333,0"/>
 </g>

</svg>