<svg width="1024" height="1024" xmlns="http://www.w3.org/2000/svg" p-id="222262" version="1.1" class="icon" t="1741459853003">
 <g>
  <title>Layer 1</title>
  <path d="m870.4,0l-716.8,0c-81.92,0 -153.6,71.68 -153.6,153.6l0,716.8c0,81.92 71.68,153.6 153.6,153.6l716.8,0c81.92,0 153.6,-71.68 153.6,-153.6l0,-716.8c0,-81.92 -71.68,-153.6 -153.6,-153.6zm-71.68,849.92c-51.2,51.2 0,0 0,0" fill="#deecfc" p-id="81107" id="svg_0"/>
  <path fill="#ffbe00" id="svg_1" p-id="222263" d="m853.33335,255.99998 c46.93334,0 85.33334,38.4 85.33334,85.33333 l0,426.66667 c0,46.93333 -38.4,85.33333 -85.33334,85.33333 l-682.66666,0 a85.33333,85.33333 0 0 1 -85.33334,-85.33333 l0,-512 c0,-47.36 37.97334,-85.33333 85.33334,-85.33333 l256,0 l85.33333,85.33333 l341.33333,0 m-42.66666,469.33333 l0,-170.66666 l-42.66667,0 l0,-42.66667 c0,-70.82667 -57.17333,-128 -128,-128 s-128,57.17333 -128,128 l0,42.66667 l-42.66667,0 l0,170.66666 l341.33334,0 m-170.66667,-256 c23.46667,0 42.66667,19.2 42.66667,42.66667 l0,42.66667 l-85.33334,0 l0,-42.66667 c0,-23.46667 19.2,-42.66667 42.66667,-42.66667z"/>
  <path d="m85.33333,255.99998c0,-47.36 37.97334,-85.33333 85.33334,-85.33333l256,0l85.33333,85.33333l341.33333,0" p-id="222264" id="svg_2" fill="#ead68f"/>
 </g>
</svg>