<svg width="1024" height="1024" xmlns="http://www.w3.org/2000/svg" p-id="222262" version="1.1" class="icon" t="1741459853003">
 <g>
  <title>Layer 1</title>
  <path d="m870.4,0l-716.8,0c-81.92,0 -153.6,71.68 -153.6,153.6l0,716.8c0,81.92 71.68,153.6 153.6,153.6l716.8,0c81.92,0 153.6,-71.68 153.6,-153.6l0,-716.8c0,-81.92 -71.68,-153.6 -153.6,-153.6zm-71.68,849.92c-51.2,51.2 0,0 0,0" fill="#81cac0" p-id="81107" id="svg_0"/>
  <path fill="#fada54" id="svg_1" p-id="222263" d="m853.33335,255.99998c46.93334,0 85.33334,38.4 85.33334,85.33333l0,426.66667c0,46.93333 -38.4,85.33333 -85.33334,85.33333l-682.66666,0a85.33333,85.33333 0 0 1 -85.33334,-85.33333l0,-512c0,-47.36 37.97334,-85.33333 85.33334,-85.33333l256,0l85.33333,85.33333l341.33333,0m-42.66666,469.33333l0,-170.66666l-42.66667,0l0,-42.66667c0,-70.82667 -57.17333,-128 -128,-128s-128,57.17333 -128,128l0,42.66667l-42.66667,0l0,170.66666l341.33334,0m-170.66667,-256c23.46667,0 42.66667,19.2 42.66667,42.66667l0,42.66667l-85.33334,0l0,-42.66667c0,-23.46667 19.2,-42.66667 42.66667,-42.66667z"/>
 </g>
</svg>