<svg t="1741459141576" class="icon" viewBox="0 0 1024 1024" version="1.1" xmlns="http://www.w3.org/2000/svg" p-id="216743" width="1024" height="1024">
  <path id="svg_0" p-id="81107" fill="#a9d2ff" d="m870.4,0l-716.8,0c-81.92,0 -153.6,71.68 -153.6,153.6l0,716.8c0,81.92 71.68,153.6 153.6,153.6l716.8,0c81.92,0 153.6,-71.68 153.6,-153.6l0,-716.8c0,-81.92 -71.68,-153.6 -153.6,-153.6zm-71.68,849.92c-51.2,51.2"/>
  <path d="M743.848205 873.289958H280.151795c-76.319415 0-138.414817-54.735038-138.414816-122.029784V316.450447c0-67.288295 62.095401-122.029785 138.414816-122.029784h463.69641c76.325866 0 138.414817 54.741489 138.414816 122.029784v434.803276c0 67.294746-62.08895 122.036235-138.414816 122.036235zM280.151795 258.070707c-41.227063 0-74.771223 26.190248-74.771223 58.386191v434.803276c0 32.195943 33.54416 58.386191 74.771223 58.386191h463.69641c41.233514 0 74.771223-26.190248 74.771223-58.386191V316.450447c0-32.195943-33.537709-58.386191-74.771223-58.386191H280.151795z" p-id="216745" fill="#36506c"></path>
  <path d="M292.892125 125.474512h79.557718v190.272798H292.892125zM648.234446 125.474512h79.557717v190.272798h-79.557717zM173.565226 366.798942h676.875999v63.643593H173.565226zM624.605166 712.110268v47.148898H387.383445c2.560968-17.823561 10.269674-34.711755 23.119667-50.664584 12.843543-15.952829 38.208089-37.117903 76.106539-63.488774 30.505833-21.319894 49.213154-35.769686 56.11551-43.355827 9.308504-10.476099 13.965982-20.829633 13.965982-31.067053 0-11.314703-4.057553-20.023283-12.166209-26.099937s-19.307245-9.121431-33.595767-9.121431c-14.127252 0-25.370997 3.193146-33.718332 9.572987-8.347335 6.379841-13.172534 16.978506-14.449792 31.789543l-67.436664-5.057428c4.012398-27.931964 16.617261-47.981051 37.80814-60.147259 21.197329-12.159758 47.690765-18.242863 79.480307-18.242863 34.83432 0 62.217966 7.044274 82.125135 21.132821 19.907169 14.088547 29.860753 31.60892 29.860754 52.561119 0 11.921078-2.851254 23.268036-8.54731 34.047323-5.702507 10.779287-14.733627 22.068187-27.09336 33.8667-8.192516 7.831271-22.964848 19.087917-44.310546 33.776389-21.358599 14.688472-34.885927 24.442081-40.588434 29.260829-5.702507 4.818748-10.32128 9.51493-13.843417 14.088547h134.389518z" p-id="216746" fill="#36506c"></path>
</svg>