<svg width="1024" height="1024" xmlns="http://www.w3.org/2000/svg" p-id="239943" version="1.1" class="icon" t="1741463041459">

 <g>
  <title>Layer 1</title>
  <path d="m870.4,0l-716.8,0c-81.92,0 -153.6,71.68 -153.6,153.6l0,716.8c0,81.92 71.68,153.6 153.6,153.6l716.8,0c81.92,0 153.6,-71.68 153.6,-153.6l0,-716.8c0,-81.92 -71.68,-153.6 -153.6,-153.6zm-71.68,849.92c-51.2,51.2 0,0 0,0" fill="#3498db" p-id="81107" id="svg_0"/>
  <path id="svg_1" p-id="239944" fill="#ecf0f1" d="m511.97439,9.13919c-277.248,0 -502.8352,225.5872 -502.8352,502.8352c0,277.2992 225.5872,502.8864 502.8352,502.8864c277.2992,0 502.8864,-225.5872 502.8864,-502.8864c0,-277.248 -225.5872,-502.8352 -502.9376,-502.8352l0.0512,0zm0,950.8352c-246.9888,0 -448,-200.96 -448,-448c0,-102.6048 35.072,-196.9664 93.2864,-272.5888c-2.4064,9.1648 -7.3728,25.8048 -6.0928,30.72c1.7408,6.2464 0.8192,9.472 2.9184,14.848c-1.28,1.0752 -4.1472,3.0208 -2.9696,5.1712c3.6864,7.3216 8.0896,17.8688 13.7216,18.432c-2.2016,11.0592 3.584,6.7072 7.0656,15.9232c0.3584,1.8432 -0.512,4.8128 1.6896,5.7344c9.5232,2.8672 22.7328,7.68 27.0336,15.872c-0.1536,-0.1024 -0.4608,0 -0.6144,0c0,0.512 0,1.3824 -0.1024,1.8944c1.8432,6.5024 4.096,7.8336 6.4512,12.6464c1.4848,3.328 1.1776,10.9568 4.352,13.0048c4.7616,3.0208 9.3696,8.704 13.5168,14.6432c2.3552,3.4816 -4.6592,2.6624 -5.888,2.6624c2.9696,4.1984 9.3184,3.2256 13.2096,6.9632c3.0208,2.816 5.2224,5.7856 8.3456,8.9088a382.0544,382.0544 0 0 0 -0.2048,7.4752c0.512,1.1776 1.024,1.4848 2.9696,2.5088c3.2768,2.1504 5.7856,8.5504 11.3664,8.704a23.296,23.296 0 0 0 4.864,6.0416c0.7168,-0.1024 2.048,-3.2768 2.2016,-4.4032c-0.1024,-1.7408 -3.4816,-7.168 -5.9904,-4.8128c-5.4784,-3.5328 -7.0656,-10.752 -9.216,-17.664c-2.304,-6.0928 -7.5776,-8.8064 -9.6768,-15.4624c-1.3824,-4.8128 -1.8432,-7.5776 -5.7856,-11.4176c-2.9184,-2.8672 -6.5536,-2.56 -8.5504,-6.7072c-2.048,-4.608 -4.608,-8.0896 -4.5568,-14.0288c0,-0.6656 0.0512,-2.7136 0.768,-3.6352c3.3792,3.328 8.0384,2.8672 13.0048,4.9152c1.8944,1.024 1.4336,7.1168 4.096,9.6768c2.2528,2.4064 1.3824,7.168 4.0448,9.7792c3.1744,3.072 5.7856,5.8368 9.728,9.6256c0.6656,-0.7168 0.6656,-0.512 3.328,-0.1536c0,7.0144 8.704,7.2192 11.7248,12.3392c1.28,3.1744 -0.9216,5.888 1.6384,8.3456c2.7136,2.6112 7.68,3.84 10.8544,6.7072c6.5024,6.4 13.3632,15.7184 17.0496,26.4192c0.4096,1.536 2.9696,2.816 3.072,6.7584c0.2048,3.328 -3.0208,4.9664 -3.1744,8.2432c0.1024,1.9456 2.048,5.8368 4.608,5.8368c1.536,3.8912 10.5984,5.9392 14.3872,9.3696l3.4816,2.048c4.0448,1.792 6.144,1.1776 10.4448,2.9696c4.0448,2.1504 5.4272,5.5808 9.8304,6.8096c3.84,0.9728 5.8368,-0.8192 9.3184,0.5632c3.6352,1.6384 13.9264,8.448 18.0224,8.704c1.9456,-0.0512 5.0176,-0.6144 7.424,0.512c1.024,0.512 3.9424,2.6624 6.5024,2.7136c5.632,-0.0512 6.5024,-5.8368 12.3392,-5.9392c1.9456,0 4.352,0.8704 7.168,2.3552l1.9968,0c8.8576,4.096 11.2128,16.2816 21.5552,20.992c6.656,3.072 10.9568,1.6384 17.408,4.2496c4.2496,1.8944 7.5776,4.8128 13.824,5.12c1.6896,-0.1024 3.8912,-1.3824 6.2464,-1.536c0.4608,0.1536 1.536,0.1024 1.9456,0c2.0992,7.3216 7.4752,9.728 12.8512,14.6944c1.1776,1.1264 3.328,2.304 4.2496,5.0688c1.6384,4.7104 -1.6384,8.5504 3.2768,11.6224c0.8192,-0.1536 2.5088,0.0512 3.328,0c-0.512,-0.4096 -0.512,-1.9968 0,-2.6624c0.256,0 11.264,6.144 12.4416,7.9872c0.9216,1.792 1.1264,5.12 5.888,6.2464c-0.1024,0.4608 1.1776,1.8432 1.6384,1.792c1.6384,0 7.3216,-1.792 9.7792,0.256c2.6112,2.5088 5.7856,7.8848 11.0592,7.9872c1.9456,0.1024 4.2496,-1.536 4.9152,-4.5056c-0.4608,-0.256 -2.5088,-1.792 -2.56,-2.7136a29.0304,29.0304 0 0 1 11.4176,-7.68c3.4304,0 1.28,6.656 4.9664,8.3968c-0.512,0.8192 -1.8944,2.048 -1.9968,2.9696c0,0.6656 3.1232,1.8432 3.6352,2.2528c0.2048,0.0512 0.5632,-0.256 0.8192,-0.3072c-0.1536,0.4608 -0.512,1.3824 -0.512,1.8944c0,5.376 5.4784,4.096 5.632,10.5472c0,2.9184 -1.536,4.096 -1.6384,7.6288c0.1536,1.7408 1.8432,3.9936 1.8432,6.4512l0,1.4336l-1.3312,2.3552c0,0.6656 1.9456,2.56 3.1744,2.9184c-2.2016,7.936 -10.1376,5.7856 -13.9776,12.3904c-2.56,4.7616 -4.864,12.288 -13.7216,12.5952c1.1776,13.0048 -3.3792,18.3808 -3.5328,24.9344c-0.0512,4.096 0.4096,9.3696 5.0176,9.6256c1.6896,-0.1024 1.8944,-1.536 4.8128,0.2048c-1.536,4.352 -7.0144,5.632 -10.0864,10.0352a15.36,15.36 0 0 0 -3.584,8.448c-0.1024,4.7616 4.3008,10.5472 7.7312,13.5168c1.024,0.768 3.6864,0.4608 4.7616,2.1504c0.6656,1.4848 1.536,5.5296 3.6864,7.5776c0.8704,0.4096 3.072,0.2048 4.096,1.8432c2.56,5.12 4.4544,8.4992 6.5536,14.7456c2.048,5.6832 3.6864,11.776 5.9904,17.9712c1.3824,3.9936 5.632,5.6832 5.632,9.7792c0,3.4304 -1.4336,6.0416 0.9216,8.0384a35.584,35.584 0 0 0 18.0224,9.8304c4.1472,1.024 5.888,1.536 9.5232,4.6592c3.2256,2.4576 6.5536,2.0992 10.9568,3.4304c5.632,2.4576 9.6256,5.2736 12.1856,11.1616c0.5632,2.816 1.2288,16.896 1.024,19.2512c-0.3584,3.584 -3.328,10.1376 -3.584,13.568c-0.4608,3.2256 -0.5632,6.4 -0.8192,10.1376a45.9264,45.9264 0 0 0 -2.7136,8.0384c0.0512,0.6144 -0.1024,1.3312 -0.1024,2.048c-0.8192,7.5264 -5.5296,12.288 -6.3488,20.6336c-0.1536,3.4304 -3.6864,6.656 -2.304,10.24c-0.4608,5.3248 -0.6656,10.2912 -1.2288,15.2576c-2.1504,4.7616 -2.6624,8.0384 -4.9152,12.8c-0.512,0.7168 -1.792,0.8192 -2.6624,1.536c-1.3312,1.3824 -2.3552,3.9424 -3.584,5.5296c-2.816,2.6624 -7.0656,7.2704 -7.5776,11.5712c-0.3584,1.4336 -0.256,6.0928 0.7168,6.144c0,0 1.3312,0.4608 1.3824,1.7408c-0.256,0.6144 -1.024,1.0752 -2.816,1.28c-1.3312,3.2768 -3.328,4.6592 -3.584,7.936c-0.1536,2.1504 -1.2288,6.0928 1.024,6.0928c1.6896,-0.3584 2.2016,-1.3824 4.3008,-2.1504c0.7168,-0.1536 1.7408,0 2.4576,-0.2048c-0.0512,1.0752 -0.1536,1.3824 -0.3584,2.4576l-9.0624,13.9264c-18.0736,2.2528 -36.352,3.7376 -55.0912,3.7376zm-43.2128,-893.7984a10.5472,10.5472 0 0 1 -3.6864,4.1984c-6.6048,4.7616 -12.1856,0.6144 -12.288,-1.2288c0,-0.4096 0.5632,-0.4096 0.8192,-0.6656c5.0688,-0.7168 10.0352,-1.7408 15.1552,-2.304zm167.0656,876.032c0.4608,-0.4096 0.5632,-0.7168 1.1264,-1.1264c-1.28,0 -2.56,-0.2048 -2.2528,-1.8944c2.4576,-0.512 3.072,0.8704 6.2464,0.3584c0.4608,-0.2048 2.9696,-1.0752 2.9696,-2.4064c0.3584,-1.024 -0.8704,-0.512 -1.8944,-1.2288c-0.7168,0.3584 -2.6112,1.4336 -3.7888,1.6896c-2.1504,0.4096 -4.4032,-3.1744 -4.096,-5.632c0.1024,-1.024 1.024,-2.2528 3.0208,-2.304c5.2224,-0.9728 5.632,1.28 10.9568,0.512c1.6896,-0.3072 5.6832,-1.8944 6.2976,-2.816c0,-0.768 0.1024,-0.9728 0.3584,-1.6384c2.2016,-2.6112 -0.7168,-4.5056 3.072,-7.1168c2.816,-2.048 10.496,-1.3824 14.7456,-2.9696c6.3488,-2.4064 10.9568,-2.56 16.1792,-6.144c2.6112,-2.304 4.7616,-3.4816 7.6288,-6.4512c1.5872,-1.3312 1.792,-2.4064 2.304,-4.864c0.7168,-2.304 -3.3792,-1.024 -3.7888,-3.072c-0.512,-2.6624 -0.1536,-3.7376 -1.792,-5.0176c-0.8192,-0.512 -4.1472,-0.512 -3.8912,-2.3552c0.1024,-0.6144 1.536,-1.1776 2.2528,-1.28c3.9936,-0.7168 6.656,1.024 10.0352,0.3584c1.6384,-0.256 6.5024,0.512 10.6496,-0.1536c11.264,-2.304 15.1552,-11.4688 21.248,-18.3808c5.2736,-5.632 11.4688,-10.6496 16.9984,-16.64c2.7136,-3.072 0.512,1.3824 2.7136,-1.5872l0,0.1024a41.7792,41.7792 0 0 1 11.4176,-11.4176c1.024,-5.2224 1.792,-10.8544 2.7136,-16.5888c0.512,-3.8912 -0.8192,0.6144 3.072,-2.7136c2.1504,-2.048 5.2224,-2.4576 7.5776,-5.7856c5.4272,-6.8608 10.24,-5.12 16.9472,-11.264c0.6656,-0.7168 1.024,-1.9456 2.7648,-2.8672c3.328,-2.1504 6.656,-2.6624 11.008,-3.7376a19.968,19.968 0 0 0 10.6496,-7.7312c0.6144,-0.8192 0.8192,-3.328 2.048,-4.9152c3.9936,-5.0688 5.4784,-7.3728 9.728,-13.1584c0.5632,-0.8192 1.8944,-5.632 2.56,-7.68c0.1536,-1.7408 2.4576,-4.352 3.6864,-5.632c0.3584,-0.6144 1.536,-1.8432 1.536,-2.9696c0.6656,-2.7648 4.1472,-14.9504 4.8128,-18.944c0.8704,-5.5296 -2.4064,-7.0144 1.2288,-11.4176c2.4576,-2.7136 4.8128,-3.84 7.4752,-7.5776c1.792,-2.4064 2.56,-3.072 4.096,-5.4272c7.2192,-11.0592 16.896,-21.7088 19.5072,-39.5264c0.7168,-5.2736 0.2048,-9.984 -3.5328,-10.752c-2.7648,-0.512 -4.608,1.1264 -7.4752,0.7168c-3.3792,-0.8192 -8.704,-6.6048 -10.5472,-10.1376a32.5632,32.5632 0 0 0 -9.9328,-2.7136c-2.56,0.7168 -5.632,1.6384 -8.704,2.304c-4.4544,0.7168 -4.7104,-3.2768 -10.0352,-2.9184c-2.0992,0.3584 -3.072,2.1504 -5.4272,3.4304c-0.512,0.1024 -1.1264,0.0512 -1.6384,0.1536c0.256,-1.8944 0.5632,-4.096 0.0512,-6.4c-0.3584,-1.792 -2.304,-1.1776 -4.3008,-2.4064c-3.072,-1.5872 -11.5712,-5.8368 -15.9744,-5.5808c-4.352,0.512 -7.4752,6.144 -10.3424,10.6496c-0.512,1.1264 -2.048,3.3792 -3.072,3.3792c-0.6656,0.1024 -1.1264,-2.1504 -1.024,-2.7648c-1.9456,-0.1024 -3.84,0.4608 -6.1952,0.512a6.5536,6.5536 0 0 0 -4.096,-5.7856c-1.1264,-0.3584 -3.584,0 -3.4304,-2.6624c0.8704,-8.192 9.5232,-18.8416 14.1312,-24.576c-0.0512,-2.1504 -3.072,-2.4576 -4.352,-5.0688c-1.0752,-3.072 -4.096,-11.4176 -4.0448,-14.7456c-4.4032,-0.9216 -9.6256,-9.4208 -14.0288,-9.5232c-0.4608,0.1024 -1.1776,0.1024 -1.6384,0.1024c0.1536,0 0,-0.4608 0,-0.5632c-2.56,0.2048 -6.9632,-1.8944 -8.9088,-2.7136c-2.048,0.1024 -4.9152,0.1024 -7.168,0.3072c-7.68,-1.1264 -18.944,0.256 -21.1968,-7.68c-1.2288,0 -3.84,-0.6656 -4.2496,-1.536c-3.6352,-7.1168 -5.7856,-6.0416 -11.3664,-11.4176c-2.56,0.256 -5.4784,0.1536 -8.192,0.256c-1.3824,-3.8912 0.1024,-7.8848 -3.9424,-9.1648c-4.352,-1.2288 -10.5472,-2.048 -12.6976,-6.144c-0.1024,-0.5632 0.0512,-1.6896 0,-2.304a6.656,6.656 0 0 0 4.5056,-0.6656s-5.4784,-0.768 -8.3968,-0.7168c-0.7168,0.3584 -7.168,0.9728 -7.5264,1.536c-2.4064,3.584 -4.864,3.584 -9.472,4.2496c-1.8944,0.1024 -6.144,-0.4096 -6.0928,-3.072l-16.6912,0.2048c-1.4336,-0.1536 -3.584,-2.2528 -3.6864,-5.2224c-4.4544,-0.8192 -11.6736,-2.4576 -12.8512,-7.168c-1.4336,0 -4.1472,-0.1024 -5.5808,0c-0.2048,3.4304 4.7616,2.048 5.9392,5.5296a85.1968,85.1968 0 0 1 -7.5264,0.0512c-2.8672,1.8944 -7.7312,1.28 -7.9872,5.6832c-0.2048,3.584 3.4816,5.4784 3.6864,9.1136c-0.1024,0.8704 -2.048,4.608 -3.0208,4.7616c-3.84,-0.1024 -5.4784,-5.6832 -5.12,-8.8064c-0.2048,-1.9456 1.8944,-7.68 2.9696,-12.0832a3.7888,3.7888 0 0 0 3.1744,-3.584s-1.6384,-3.4304 -2.816,-3.584c-3.6864,0.3072 -5.12,4.352 -9.2672,5.7344c-8.192,2.3552 -12.9536,3.584 -20.8384,6.0416c-4.096,1.3824 -7.0144,2.048 -8.704,6.912c-0.512,1.7408 -1.28,6.0416 -3.0208,7.424c-1.536,0.6144 -4.9664,2.0992 -5.1712,5.0688c-0.512,0.1024 -1.8944,1.024 -1.9968,1.4848a4.3008,4.3008 0 0 1 0,1.7408c-1.5872,0.6656 -1.4336,0.512 -3.8912,0.1024c-0.6144,0.4096 -1.792,1.536 -2.4064,2.048l2.1504,-2.3552c-5.12,-3.6864 -5.5808,-12.1856 -15.0016,-12.544c-7.936,0.1536 -11.9296,5.9392 -20.5824,6.0416c-5.7344,-0.1024 -5.4784,-5.3248 -9.1648,-7.1168c-5.2224,-2.304 -11.8272,-4.7104 -12.0832,-11.5712c0,-6.2464 0.1536,-11.8784 0,-18.2784c2.048,-2.9696 2.304,-14.6432 2.304,-17.408c0.2048,-1.024 0,-3.3792 0,-4.4544c-5.8368,-1.2288 -7.7312,-6.144 -15.7696,-6.3488c-11.5712,0.1024 -20.2752,1.8432 -31.232,1.8432c-1.536,0.0512 -3.84,-1.1776 -3.9936,-3.2768a5.2224,5.2224 0 0 1 0,-1.536c1.536,-1.1776 5.8368,-2.9184 5.9392,-5.9904a241.7664,241.7664 0 0 1 0,-14.4384c0.6144,-0.1024 1.9968,0 2.6112,0c-0.1024,0.512 0.1024,1.6384 0,2.1504c2.048,-2.9696 3.9424,-4.9664 3.9424,-9.9328c0.1024,-5.7856 5.5296,-11.008 5.632,-15.2576l0,-2.7136c-1.4336,0 -6.6048,-0.4608 -7.5776,-0.5632a14.4384,14.4384 0 0 0 -6.5536,-0.9216c-9.0112,0 -20.48,-0.256 -20.7872,8.5504c-0.1536,4.5056 -5.376,8.448 -6.912,11.9808c-0.2048,0.8704 -2.048,4.6592 -4.608,4.8128c-0.9216,0 -2.6624,-1.792 -6.2464,-1.792c-6.7072,0 -11.6736,4.096 -17.92,4.1984c-1.9456,-0.0512 -2.6624,-2.56 -5.5808,-3.584c-8.704,-2.56 -8.4992,-7.3216 -14.2848,-12.8a52.6848,52.6848 0 0 1 -7.68,-8.6016c-1.536,-2.7648 0.3072,-4.352 -0.9728,-7.1168c-0.5632,-0.8192 -3.0208,-3.4816 -2.56,-5.9392c0.2048,-5.4784 0.2048,-10.8544 0.1536,-16.5376c1.024,-4.5568 3.328,-6.3488 3.328,-11.8784c0.0512,-1.3312 -0.768,-3.328 -1.2288,-4.6592c-0.1024,-0.1536 -0.3072,-0.5632 -0.2048,-0.7168c0.1536,-0.1536 0.7168,0.256 0.8704,0.1024c0.1024,-0.6656 -1.536,-2.2528 -1.536,-2.9184c0.256,-8.7552 4.096,-16.6912 11.4176,-19.2c3.2256,-1.28 6.144,0.9216 8.7552,-1.536c3.9936,-3.4816 8.3456,-10.752 17.8688,-11.008c3.6864,0.1024 5.4784,2.9184 9.0624,2.816c1.4336,-0.0512 3.4304,-2.304 4.9152,-2.3552c6.6048,0.0512 13.9776,9.6768 23.3984,5.7344c-3.9424,-2.4576 -1.0752,-5.12 -0.6144,-9.3696c-1.536,0.3072 -1.28,0.9216 -4.5568,0c5.632,-1.6896 12.288,-1.1264 17.5616,-2.3552c0,0.6656 1.536,2.3552 2.304,2.304c1.9456,0.1024 3.4816,-2.4576 8.192,-2.3552c7.8336,-0.1024 11.264,6.912 17.2544,6.7584c2.1504,0 4.2496,-3.7888 7.168,-3.7888c14.5408,0.256 10.6496,17.6128 15.7696,27.392c2.6624,4.8128 5.632,6.4 9.8816,10.9056c1.792,3.072 1.6384,7.2192 6.5024,7.4752c5.5808,0 7.1168,-5.5296 7.1168,-11.776c0,-5.5296 -2.8672,-8.192 -3.9936,-11.8272l0,-1.4848c-0.3072,-9.472 -8.96,-12.1856 -9.216,-22.016c0.1024,-21.3504 15.7696,-22.4256 30.976,-29.696l-0.8704,-0.512c1.536,-1.2288 1.4848,-2.4576 5.376,-3.584c1.9968,-0.3072 4.1984,-2.7136 7.936,-3.328c1.3312,-0.1536 2.9696,-2.1504 3.6864,-3.072a32.768,32.768 0 0 0 -3.7888,-2.048l0,-2.2528c2.0992,0 4.3008,0.256 4.864,-2.7136c-1.1776,-0.3584 -3.1232,-0.512 -4.4544,-2.56c1.1776,0 4.096,-0.8704 4.1472,-3.328c0,-0.768 0.0512,-2.0992 -0.0512,-2.816c-0.512,-0.256 -1.6896,0 -2.2016,-0.0512c-1.4336,-1.3312 -0.0512,-1.4848 -0.1024,-4.1984c-0.1536,-2.8672 -1.6384,-7.936 -1.8432,-9.728c0,0 -0.256,-2.56 0.256,-3.6864c0.512,3.0208 3.7376,6.9632 3.6864,9.2672l0.0512,3.072c0.1024,0.4096 0.8704,1.6384 1.28,1.7408a53.248,53.248 0 0 0 7.0144,-11.264c-0.2048,-1.7408 -2.304,-2.8672 -2.9696,-5.3248c0.4096,-0.3584 1.1776,-0.9216 1.536,-1.3312c0.4096,0.512 1.536,2.2528 2.2528,2.2528c1.6896,-0.0512 7.8848,-9.472 8.448,-11.52c0,0 -2.9696,-2.2528 -2.9184,-3.3792c-0.256,-0.5632 1.1264,-1.4336 1.792,-1.8432c0.7168,0.1024 2.0992,0.2048 2.816,0.4096c4.608,-0.3584 7.424,0.256 11.776,-0.9728c-1.5872,-1.2288 -4.9152,0 -7.7824,-0.3072c-0.8192,-0.0512 -2.304,-0.2048 -3.072,-0.1024c6.1952,-3.328 16.5376,-1.4336 22.6304,-5.0688c0.9216,0.9216 6.2976,0.512 10.0864,-0.3584c-0.1536,-0.512 -0.1024,-1.3312 -0.1024,-1.8432c0,0 -2.816,1.6384 -3.328,1.7408c-1.4336,0 -3.2256,-3.8912 -3.2256,-4.9664c-0.7168,-0.2048 -1.1776,-1.792 -1.3312,-2.4576c-0.1024,-10.5984 10.6496,-6.7584 15.5648,-10.8032c2.9696,-1.0752 3.1744,-1.6384 6.8096,-1.4848a10.0864,10.0864 0 0 0 9.3184,-3.84c-0.512,-0.3584 -1.024,-1.4336 -1.4336,-1.9456c0,0 0,-0.6144 -0.2048,-0.7168l-0.0512,-0.8192c0.512,0.1024 2.2528,0.1536 2.9696,0.2048c1.4336,0 9.216,1.4336 11.776,0.256c2.6624,-1.536 2.2528,-4.6592 6.656,-4.6592c0.3584,3.4304 0,3.7376 4.6592,4.1984c-6.8096,-0.1024 -16.896,3.4816 -16.5888,9.1136c0.1536,1.9456 4.608,6.656 6.2976,6.912c1.8944,-0.1024 7.3728,-6.2464 13.056,-7.68c1.2288,0 20.1216,-5.2736 20.48,-7.3216c-0.4096,-2.6624 -7.4752,-3.6352 -9.4208,-3.7888c-8.2944,-0.768 -21.7088,-8.704 -22.6816,-15.0016c-1.536,-0.3072 -4.096,-1.024 -6.2976,-1.1264c1.5872,-1.8944 11.6736,-2.1504 11.5712,-7.3216c-0.6144,-4.352 -9.0624,-4.4544 -15.36,-4.864c-13.0048,-0.768 -18.1248,6.144 -27.136,6.8608c3.584,-6.5536 9.6768,-4.096 15.872,-8.9088c4.0448,-3.4304 0.6144,-5.5808 6.8096,-6.8608c10.752,-2.048 16.896,0.1536 28.1088,1.1264c14.336,1.28 25.3952,7.168 32.9728,-1.024c3.4816,-3.84 23.808,-1.024 23.3472,-6.7072c-0.512,-4.2496 -2.6624,-6.2464 -5.632,-9.0624c-1.8432,-0.3584 0.768,-1.4848 -2.4064,-2.9184c0,-0.7168 -0.3584,-1.4336 -0.3072,-2.1504a94.208,94.208 0 0 1 -24.832,2.1504c-0.7168,0.1024 -2.56,-0.7168 -2.816,-1.024c5.2224,-1.3312 19.6096,-0.6656 21.1456,-3.9424c0,-0.8704 -2.1504,-1.4848 -2.56,-2.2528c-6.6048,-0.3584 -20.1728,-3.7888 -21.0944,-9.8304c-0.1536,-0.1024 -0.0512,-0.3584 -0.0512,-0.3584c-6.0416,-0.9216 -9.8816,-3.6864 -13.6704,-5.7856c1.2288,-0.512 3.8912,-0.512 3.7376,-2.6624c-0.1024,-1.6384 -2.7648,-3.4304 -2.5088,-4.9152c-2.7136,-0.9216 -11.9296,-5.12 -9.9328,-8.0896c2.304,-3.6864 -9.0112,-5.632 -10.752,-10.24a23.3984,23.3984 0 0 1 -4.9664,-2.56c-1.7408,0.6144 -6.656,1.7408 -5.7856,3.8912c1.6384,3.6864 -3.1232,3.9424 -8.0384,5.4784c-3.328,1.1264 -5.888,3.6864 -8.8576,3.328c-5.0688,-0.4608 -9.216,-6.0928 -12.6464,-6.6048c-4.7104,-0.512 -3.072,-8.1408 -4.1472,-11.8272c-1.9456,-4.608 -16.2304,-2.816 -17.2032,-8.704c-8.0896,-1.2288 -7.168,-4.1472 -15.4624,-4.6592c-1.6896,-0.2048 -4.1472,-0.3072 -6.2976,-0.4096c-8.3968,-0.512 -13.568,-3.5328 -21.9648,-3.8912c-4.352,-0.256 -8.6016,0.6656 -8.4992,3.584c0.2048,1.6896 10.6496,4.3008 1.28,7.424c-3.84,1.1264 5.4784,5.4784 6.2464,7.7824c1.28,5.376 -6.8608,6.0416 -10.8032,6.656c4.096,3.6864 11.8784,4.9152 15.5648,8.192c2.8672,2.9696 1.2288,7.5776 1.4336,13.0048c-0.256,3.2256 -17.5104,10.496 -23.6544,11.264c10.8544,3.6864 6.9632,13.1584 11.2128,16.7936a21.6064,21.6064 0 0 0 -4.5056,6.8096c-3.7888,0.2048 -6.9632,1.0752 -9.984,-0.512c-7.7824,-4.0448 -19.0464,-11.1616 -19.3536,-16.1792c-0.256,-5.376 0,-9.8304 -8.704,-12.9024c-6.4512,-1.3312 -12.8,-2.2528 -19.2512,-3.2256a223.4368,223.4368 0 0 0 -37.376,-9.7792c-1.8944,-0.512 -9.216,-3.072 -13.4656,-3.072c-4.608,0.1536 -6.7072,2.7136 -11.264,2.6624c-0.1536,-3.84 -4.3008,-12.4416 -10.9568,-12.5952c-3.072,0.2048 -4.4544,1.536 -7.5264,1.8944c1.1264,-1.792 0,-2.7136 0.3584,-7.168c0.256,-6.5536 4.5056,-12.3392 11.5712,-16.128c2.4576,-1.8432 7.68,-7.2704 9.9328,-7.8336c5.0688,-0.9728 9.728,2.2016 9.8816,-1.4336c-0.0512,-2.56 -11.0592,-2.1504 -15.1552,-3.1744c2.1504,0.3072 -6.656,-2.6624 17.5104,0.6656c6.2976,0.4608 2.5088,-3.1744 6.0416,-3.2768c1.7408,-0.1536 4.1472,-0.2048 6.4,-0.1024c7.2704,-0.1024 10.9056,-3.7888 15.5648,-5.5296l0.0512,-2.1504c-9.984,-1.2288 -19.6096,-0.256 -24.064,-4.4032a36.2496,36.2496 0 0 1 5.2224,-0.1024c3.7376,0.8192 7.3216,3.0208 13.0048,3.1232c4.7104,-0.1536 15.0528,-1.024 15.36,-2.6624c-0.1536,-2.7136 -0.7168,-3.84 -1.3312,-4.3008c5.7344,0.3072 8.0384,2.7648 11.9296,2.9184c3.2256,-0.256 6.2976,0.2048 9.728,0.1536c-1.3312,-0.7168 -0.4096,-3.2768 3.4304,-0.6656c2.048,1.536 16.2304,-4.3008 16.5376,-6.144c-0.256,-1.3824 -6.5536,-2.6624 -6.7584,-3.584c0.0512,-0.7168 -1.4336,-1.792 0,-3.0208c3.2256,-0.0512 6.4,-0.512 9.728,-0.512c11.4176,0 22.6816,0.8704 33.8944,1.7408c0.3072,0.0512 1.4336,1.28 2.3552,1.536c3.6864,0 5.2736,-1.0752 8.8064,-0.768c5.7856,0.6656 23.8592,7.3216 24.4736,10.3936c0.1536,1.7408 -5.376,3.4816 -7.8848,4.4544c-1.8432,0.256 -6.912,-0.768 -6.8608,1.2288c0,1.024 4.1472,2.3552 5.2736,2.8672c-3.4304,0.512 -10.0352,0.8704 -12.544,0.768c-4.352,-0.3584 -8.0896,-0.6656 -12.2368,-0.8192c-3.9424,-0.4096 -11.1104,1.28 -11.264,2.6112c0.256,1.792 9.2672,3.84 12.544,4.096c3.4304,0.3584 5.0176,-1.3312 8.4992,-1.28c2.048,0.2048 1.9456,0.9216 4.864,1.1776a10.496,10.496 0 0 0 5.5296,-1.4336c8.3968,2.6112 13.056,5.12 22.528,7.8336c-4.1984,3.584 12.288,5.12 19.3536,7.2704c7.3216,2.4576 12.1856,2.5088 20.5824,4.9664c0.6656,0.3072 1.7408,1.6896 2.9696,1.792c0.9216,0.1024 2.56,-0.256 2.56,-1.1776c-0.9216,-3.4816 -16.128,-7.5776 -21.1968,-10.8032c1.1264,0.4608 2.9696,0.3584 4.1984,0.4608c3.1744,2.048 20.8384,7.0144 26.0096,7.7824c1.024,-1.3824 3.4816,-3.072 3.3792,-4.3008c-0.3072,-1.3824 -5.12,-2.56 -5.2224,-3.4304a13.312,13.312 0 0 1 -0.3072,-2.3552c-1.3824,0.0512 -3.2768,-0.4096 -4.608,-0.5632c-0.8192,-2.1504 -2.4576,-1.0752 -7.7824,-2.3552a18.944,18.944 0 0 1 -6.5536,-5.12c-1.024,-0.2048 -2.56,-0.3072 -3.584,-0.512c0,-0.6144 0,-1.1264 -0.2048,-1.6896a9.6768,9.6768 0 0 0 4.096,0.4608c-0.1536,-0.512 -0.0512,-0.8704 -0.2048,-1.3824c-2.1504,-0.2048 -2.9184,-0.1536 -5.4784,-0.8704a17.408,17.408 0 0 1 5.2736,-0.6656c13.312,1.6896 14.5408,9.3696 28.0064,11.3152c2.9696,0.3072 3.072,-1.3312 2.9696,-2.7648c5.12,0.512 5.632,-0.2048 5.5808,-0.5632c-0.1536,-0.5632 -0.3072,-0.9216 -0.3072,-1.536c2.7648,0.4608 5.8368,0.512 6.7584,-0.4096c10.3424,3.84 20.5824,7.936 30.6176,12.4928c0.512,0.3584 1.1776,0.8192 2.2016,1.024c5.4272,2.56 10.8032,5.12 16.128,7.8336c-1.6896,-0.6144 -3.3792,-1.3312 -5.2736,-1.6896c-2.048,-0.5632 -1.8944,-0.6144 -4.096,-0.9216c1.4336,2.4576 13.0048,5.9392 21.1456,8.4992c1.28,0.6656 2.3552,1.4848 3.584,2.2016c-1.3824,1.4848 -3.328,2.048 -3.9424,4.4544c-3.3792,-1.536 -3.328,-1.3824 -6.3488,-1.2288c0.1024,0 0,0.1024 0,0.1024c-4.352,0.8192 -5.0176,2.4576 -7.8336,3.8912c0.1536,0.9216 0.3072,1.536 0.6144,2.4064a12.1856,12.1856 0 0 1 4.608,0.9728c-0.3584,1.3824 -1.8944,0.9728 -1.6384,2.2016c0.5632,2.9184 7.2704,5.3248 9.1136,7.7824c0.9728,1.1264 2.2016,3.584 3.1744,4.096c4.352,2.048 4.5056,-0.7168 8.6016,2.1504c-1.792,0.4096 -3.328,-0.1024 -2.9696,1.3824c0.7168,3.4816 10.0352,12.288 15.2576,15.0528c0.5632,0.512 0.768,1.7408 2.1504,2.6624c4.096,1.8432 5.7856,1.792 8.1408,4.864c2.56,0.512 5.8368,-0.1024 8.9088,0.6144c5.5808,1.536 6.2976,6.144 11.6224,7.68c1.3824,0.1024 1.536,-0.3072 4.0448,0.3072c0.3584,0.8192 1.3312,1.2288 2.816,1.792c5.5808,1.28 1.5872,-4.9152 6.0416,-4.9664c-0.768,-1.28 -1.1264,-4.3008 -1.6384,-6.0928c-0.768,-2.8672 5.376,-1.9968 7.1168,-3.584a449.1264,449.1264 0 0 1 139.1104,204.8c-0.2048,0.3072 -0.512,0.4096 -0.7168,0.6656a175.616,175.616 0 0 0 -15.7184,42.8544c-1.536,5.9392 -10.3936,10.5472 -10.1376,19.2512c2.6624,16.384 11.9808,29.696 12.0832,48.3328c0.3072,10.496 -7.424,30.208 -17.0496,35.2256c2.3552,5.8368 9.6256,13.6704 10.1376,19.5584c-0.256,3.584 1.1776,6.912 1.28,13.2608l-1.1264,0c2.6112,2.816 2.56,3.1232 4.9152,5.632c0.0512,1.536 18.2784,19.8144 21.1456,21.8112c4.9664,4.864 7.168,10.6496 9.4208,17.0496a449.024,449.024 0 0 1 -315.9552,345.856zm12.5952,-852.4288c-0.768,-0.3072 -0.9728,0.1536 -1.8944,-0.3072c-2.048,-1.0752 -3.2768,-3.584 -4.5056,-6.0928c2.0992,2.048 4.2496,4.096 6.4,6.4z"/>
 </g>
</svg>