<svg width="1024" height="1024" xmlns="http://www.w3.org/2000/svg" p-id="99893" version="1.1" class="icon" t="1741450497454">

 <g>
  <title>Layer 1</title>
  <path d="m870.4,0l-716.8,0c-81.92,0 -153.6,71.68 -153.6,153.6l0,716.8c0,81.92 71.68,153.6 153.6,153.6l716.8,0c81.92,0 153.6,-71.68 153.6,-153.6l0,-716.8c0,-81.92 -71.68,-153.6 -153.6,-153.6zm-71.68,849.92c-51.2,51.2 0,0 0,0" fill="#B2DDEE" p-id="81107" id="svg_0"/>
  <path id="svg_1" p-id="99894" fill="#ffffff" d="m322.47779,771.26232c-7.7489,0 -12.38376,-4.70727 -14.12183,-9.12487c-3.91066,-9.99391 3.40373,-16.72894 12.60102,-25.27446c4.56244,-4.20034 10.13875,-9.41455 13.83215,-14.04941c12.02166,-15.20812 19.19121,-28.67818 21.07412,-35.05111c-82.12388,-47.07276 -125.50324,-113.1919 -125.50324,-191.47753c0,-65.46736 29.54721,-126.8068 83.21017,-172.86569c53.15602,-45.62438 123.62033,-70.68157 198.42982,-70.68157s145.2738,25.05719 198.3574,70.60915c53.66296,46.05889 83.21017,107.47075 83.21017,172.86569c0,64.96042 -29.69205,124.41695 -83.57226,167.57905c-52.14215,41.78614 -122.46162,64.74316 -197.99531,64.74316c-9.05246,0 -19.40846,-1.08629 -29.40238,-2.17259c-11.94924,-1.30355 -24.26058,-2.6071 -31.64738,-1.59323c-17.74281,2.31743 -46.42099,17.81523 -66.40881,29.32996c-19.55331,11.22504 -48.59358,17.16345 -62.06364,17.16345zm51.78005,-103.84977c4.20034,2.75195 7.09712,6.87987 8.25584,11.94925c3.91066,16.58409 -12.96312,42.14823 -24.76752,57.50119c4.85212,-1.73807 9.48697,-3.76582 13.47005,-6.08325c25.34688,-14.48393 54.1699,-29.69205 76.25789,-32.58884c10.50085,-1.37597 23.82606,0.07242 37.94789,1.52082c9.26972,1.01387 18.90153,2.02775 26.57801,2.02775c145.2738,0 254.84473,-88.35197 254.84473,-205.52695c0,-119.49241 -114.35062,-216.67958 -254.84473,-216.67958s-254.84473,97.18717 -254.84473,216.67958c0,69.95737 38.59967,127.09647 114.78514,169.82406l2.17259,1.23114l0.14484,0.14483z"/>
  <path id="svg_2" p-id="99895" fill="#ffffff" d="m380.12383,488.10152m-45.3347,0a45.3347,45.3347 0 1 0 90.6694,0a45.3347,45.3347 0 1 0 -90.6694,0z"/>
  <path id="svg_3" p-id="99896" fill="#ffffff" d="m380.12383,534.23283c-25.4193,0 -46.13131,-20.71202 -46.13131,-46.13131s20.71201,-46.13132 46.13131,-46.13132s46.13131,20.71202 46.13131,46.13132c-0.07242,25.41929 -20.71202,46.13131 -46.13131,46.13131zm0,-90.74181c-24.62268,0 -44.6105,19.98782 -44.6105,44.6105s19.98782,44.6105 44.6105,44.6105s44.6105,-19.98782 44.6105,-44.6105s-20.06024,-44.6105 -44.6105,-44.6105z"/>
  <path id="svg_4" p-id="99897" fill="#ffffff" d="m466.59288,488.10152a45.40712,45.3347 0 1 0 90.81424,0a45.40712,45.3347 0 1 0 -90.81424,0z"/>
  <path id="svg_5" p-id="99898" fill="#ffffff" d="m512,534.23283c-25.41929,0 -46.13131,-20.71202 -46.13131,-46.13131s20.71202,-46.13132 46.13131,-46.13132s46.13131,20.71202 46.13131,46.13132s-20.71202,46.13131 -46.13131,46.13131zm0,-90.74181c-24.62268,0 -44.6105,19.98782 -44.6105,44.6105s19.98782,44.6105 44.6105,44.6105s44.6105,-19.98782 44.6105,-44.6105s-19.98782,-44.6105 -44.6105,-44.6105z"/>
  <path id="svg_6" p-id="99899" fill="#ffffff" d="m643.87617,488.10152m-45.3347,0a45.3347,45.3347 0 1 0 90.6694,0a45.3347,45.3347 0 1 0 -90.6694,0z"/>
  <path id="svg_7" p-id="99900" fill="#ffffff" d="m643.87617,534.23283c-25.41929,0 -46.13131,-20.71202 -46.13131,-46.13131s20.71202,-46.13132 46.13131,-46.13132s46.13131,20.71202 46.13131,46.13132s-20.71201,46.13131 -46.13131,46.13131zm0,-90.74181c-24.62268,0 -44.6105,19.98782 -44.6105,44.6105s19.98782,44.6105 44.6105,44.6105s44.6105,-19.98782 44.6105,-44.6105s-19.98782,-44.6105 -44.6105,-44.6105z"/>
 </g>
</svg>