<svg t="1741451180859" class="icon" viewBox="0 0 1024 1024" version="1.1" xmlns="http://www.w3.org/2000/svg" p-id="102357" width="1024" height="1024">
<path id="svg_0" p-id="81107" fill="#B2DDEE" d="m870.4,0l-716.8,0c-81.92,0 -153.6,71.68 -153.6,153.6l0,716.8c0,81.92 71.68,153.6 153.6,153.6l716.8,0c81.92,0 153.6,-71.68 153.6,-153.6l0,-716.8c0,-81.92 -71.68,-153.6 -153.6,-153.6zm-71.68,849.92c-51.2,51.2"/>
<path id="svg_1" p-id="102358" fill="#ffffff" d="M412.910933 314.914133c-145.851733 0-264.0896 108.305067-264.0896 241.902933 0 61.781333 25.429333 118.0672 67.072 160.802133 4.061867 4.164267 5.8368 9.898667 4.539733 15.496533L202.069333 811.690667c-3.310933 14.2336 11.912533 25.8048 25.361067 19.285333l90.146133-43.6224c4.027733-1.9456 8.635733-2.2528 12.936533-0.955733 25.941333 7.850667 53.589333 12.288 82.397867 12.288 145.851733 0 264.0896-108.305067 264.0896-241.902933S558.762667 314.914133 412.910933 314.914133zM281.838933 511.249067c23.210667 0 41.984 17.237333 41.984 38.468267 0 21.230933-18.807467 38.468267-41.984 38.468267s-41.984-17.237333-41.984-38.468267C239.854933 528.452267 258.6624 511.249067 281.838933 511.249067zM406.1184 588.1856c-23.210667 0-41.984-17.237333-41.984-38.468267 0-21.230933 18.807467-38.468267 41.984-38.468267s41.984 17.237333 41.984 38.468267C448.1024 570.948267 429.294933 588.1856 406.1184 588.1856zM527.701333 588.1856c-23.210667 0-41.984-17.237333-41.984-38.468267 0-21.230933 18.807467-38.468267 41.984-38.468267s41.984 17.237333 41.984 38.468267C569.685333 570.948267 550.877867 588.1856 527.701333 588.1856z"></path>
<path id="svg_2" p-id="102359" fill="#ffffff" d="M875.178667 478.037333c0-164.0448-151.04-297.028267-337.373867-297.028267-124.0064 0-232.072533 59.0848-290.7136 146.8416 47.5136-28.945067 104.516267-45.8752 165.853867-45.8752 165.717333 0 300.032 123.050667 300.032 274.8416 0 85.7088-42.871467 162.2016-109.9776 212.616533 5.4272-0.9216 10.683733-2.2528 16.008533-3.413333l-0.546133 0.4096 142.6432 74.478933c12.6976 6.621867 27.818667-3.310933 26.180267-17.2032l-14.609067-123.323733c-0.648533-5.4272 1.501867-10.717867 5.632-14.404267C838.109867 632.388267 875.178667 559.104 875.178667 478.037333z"></path>
</svg>