<svg width="1024" height="1024" xmlns="http://www.w3.org/2000/svg" t="1741446509122" class="icon" version="1.1" p-id="81106">
 <g>
  <title>电话</title>
  <rect id="svg_2" fill="#ffffff" stroke="#000" height="776" width="776" y="124" x="124"/>
  <path id="svg_1" p-id="81107" fill="#A4E871" d="m870.4,0l-716.8,0c-81.92,0 -153.6,71.68 -153.6,153.6l0,716.8c0,81.92 71.68,153.6 153.6,153.6l716.8,0c81.92,0 153.6,-71.68 153.6,-153.6l0,-716.8c0,-81.92 -71.68,-153.6 -153.6,-153.6zm-71.68,849.92c-51.2,51.2 -245.76,5.12 -435.2,-189.44c-194.56,-189.44 -240.64,-384 -189.44,-435.2c46.08,-46.08 97.28,-122.88 179.2,-20.48s40.96,133.12 -5.12,179.2c-30.72,30.72 35.84,112.64 107.52,184.32s153.6,138.24 184.32,107.52c46.08,-46.08 76.8,-87.04 179.2,-5.12s25.6,133.12 -20.48,179.2z"/>
 </g>
</svg>