<svg width="1024" height="1024" xmlns="http://www.w3.org/2000/svg" t="1741457614399" class="icon" version="1.1" p-id="161505">
 <g>
  <title>Layer 1</title>
  <path id="svg_0" p-id="81107" fill="#70a1d7" d="m870.4,0l-716.8,0c-81.92,0 -153.6,71.68 -153.6,153.6l0,716.8c0,81.92 71.68,153.6 153.6,153.6l716.8,0c81.92,0 153.6,-71.68 153.6,-153.6l0,-716.8c0,-81.92 -71.68,-153.6 -153.6,-153.6zm-71.68,849.92c-51.2,51.2 0,0 0,0"/>
  <circle cx="683" cy="341" r="150" fill="#fada54" id="svg_1"/>
  <path d="m832.782,605.54899c-4.852,-53.244 -49.61,-94.954 -104.118,-94.954c-8.817,0 -17.376,1.096 -25.555,3.15c-21.352,-66.005 -83.307,-113.745 -156.422,-113.745c-60.874,0 -114.017,33.091 -142.43,82.264c-15.935,-7.617 -33.778,-11.886 -52.618,-11.886c-65.491,0 -118.94,51.539 -122.013,116.269c-51.557,7.59 -91.133,52.007 -91.133,105.673c0,58.997 47.827,106.824 106.824,106.824c27.51,0 52.59,-10.402 71.526,-27.485c18.834,16.485 43.492,26.48 70.488,26.48c34.217,0 64.685,-16.051 84.287,-41.033c24.13,31.656 62.228,52.093 105.105,52.093c42.484,0 80.277,-20.062 104.438,-51.223c19.492,31.352 54.244,52.228 93.877,52.228c61.01,0 110.469,-49.458 110.469,-110.468c-0.001,-39.844 -21.097,-74.755 -52.725,-94.187z" p-id="15000" fill="#ffffff" id="svg_2"/>
 </g>

</svg>