<svg width="1024" height="1024" xmlns="http://www.w3.org/2000/svg" t="1741452980344" class="icon" version="1.1" p-id="130934">
 <g>
  <title>Layer 1</title>
  <path d="m870.4,0l-716.8,0c-81.92,0 -153.6,71.68 -153.6,153.6l0,716.8c0,81.92 71.68,153.6 153.6,153.6l716.8,0c81.92,0 153.6,-71.68 153.6,-153.6l0,-716.8c0,-81.92 -71.68,-153.6 -153.6,-153.6zm-71.68,849.92c-51.2,51.2 0,0 0,0" fill="#f6f6f6" p-id="81107" id="svg_0"/>
  <rect id="svg_20" height="421" width="480" y="317" x="267" fill="#FFFFFF"/>
  <path d="m125.15923,288.01652c0.77625,1.38322 1.49471,2.77058 2.32464,4.14967l142.62503,238.41446l121.97987,-211.2702l135.66762,-241.90348l-5.04155,-5.04155c-2.87794,-0.05368 -5.76413,-0.10736 -8.66271,-0.10735c-164.02994,0 -307.91845,86.2018 -388.8929,215.75845z" fill="#96F5FF" p-id="130935" id="svg_1"/>
  <path d="m270.1089,547.09677a16.51613,16.51613 0 0 1 -14.17497,-8.03509l-142.62503,-238.41858a93.50194,93.50194 0 0 1 -1.86632,-3.29497l-0.68955,-1.2511a16.52852,16.52852 0 0 1 0.39639,-16.83819c87.48181,-139.95768 238.09651,-223.5169 402.90684,-223.5169c3.0018,0 5.99122,0.05367 8.97238,0.10735a16.51613,16.51613 0 0 1 11.37136,4.83923l5.04155,5.04155a16.50787,16.50787 0 0 1 2.72103,19.75329l-135.66761,241.90761l-122.0831,211.44774a16.50787,16.50787 0 0 1 -14.17497,8.25806l-0.128,0zm-125.60929,-258.65909l125.35742,209.54838l107.92878,-186.93367l124.57703,-222.12542c-145.4782,3.75329 -277.89626,77.54322 -357.86323,199.51071z" fill="#6E6E96" p-id="130936" id="svg_2"/>
  <path d="m920.8609,319.31045c-72.65445,-139.59432 -215.01109,-237.0849 -380.9569,-246.31329l-12.14761,4.40981l-135.66762,241.90348l528.77213,0z" fill="#BFFFCE" p-id="130937" id="svg_3"/>
  <path d="m921.29004,335.82658l-528.77213,0a16.51613,16.51613 0 0 1 -14.40619,-24.59665l135.66761,-241.90348a16.50374,16.50374 0 0 1 8.77007,-7.44464l12.14761,-4.40981a16.24774,16.24774 0 0 1 6.55278,-0.96619c166.35045,9.25316 317.58451,107.02864 394.69006,255.17832a16.512,16.512 0 0 1 -14.64981,24.14245zm-500.57083,-33.03226l472.37367,0c-74.44232,-123.3218 -206.08826,-203.97006 -350.32774,-213.10761l-3.17523,1.152l-118.8707,211.95561z" fill="#6E6E96" p-id="130938" id="svg_4"/>
  <path d="m636.04026,319.31045l121.97574,211.2702l143.56645,244.80619l4.12078,0c44.83716,-70.82116 70.8129,-154.77265 70.8129,-244.80619c0,-76.52336 -18.77884,-148.6493 -51.94323,-212.0671l-3.70787,0.7969l-284.82477,0z" fill="#FEFF73" p-id="130939" id="svg_5"/>
  <path d="m901.18474,791.90297l-4.12078,0a16.512,16.512 0 0 1 -14.24516,-8.1631l-143.56645,-244.80619l-122.03355,-211.36516a16.50787,16.50787 0 0 1 14.30297,-24.7742l283.06993,0l1.99433,-0.42942a16.51613,16.51613 0 0 1 18.1058,8.49755c35.20826,67.33213 53.82194,143.31045 53.82194,219.7182c0,90.11199 -25.37703,177.81677 -73.37703,253.64232a16.512,16.512 0 0 1 -13.952,7.68zm-241.05704,-456.07639l107.67278,186.496l131.4271,224.10736c36.87225,-65.72594 56.25393,-139.86271 56.25393,-215.84929c0,-67.46839 -15.5871,-134.56517 -45.16336,-194.75407l-250.19045,0z" fill="#6E6E96" p-id="130940" id="svg_6"/>
  <path d="m901.58245,775.38684l-143.56645,-244.80619l-121.97574,211.27019l-147.60465,246.06968c9.83949,0.62761 19.75742,0.98271 29.75794,0.98271c160.82993,0 302.28645,-82.85317 384.08258,-208.18994l-0.69368,-5.32645z" fill="#FFCC5E" p-id="130941" id="svg_7"/>
  <path d="m513.26881,1005.41935c-9.88491,0 -20.24878,-0.34271 -30.81084,-1.01574a16.52439,16.52439 0 0 1 -13.10968,-24.98064l147.60465,-246.06968l121.83948,-211.03071a16.51613,16.51613 0 0 1 28.54813,-0.09497l143.56645,244.8062c1.11897,1.91174 1.84568,4.02993 2.13471,6.22245l0.69368,5.32645a16.53264,16.53264 0 0 1 -2.54761,11.16077c-88.14246,135.04826 -236.89497,215.67587 -397.91897,215.67587zm-1.1809,-33.03225l1.1809,0c147.20826,0 283.40026,-72.43149 365.90245,-194.16362l-125.96852,-214.80051l-107.78425,186.69006l-133.33058,222.27407z" fill="#6E6E96" p-id="130942" id="svg_8"/>
  <path d="m636.04026,741.85084l-524.64723,0c72.07226,138.496 212.78142,235.53651 377.04258,246.06968l147.60465,-246.06968z" fill="#FF9EAF" p-id="130943" id="svg_9"/>
  <path d="m483.55734,1004.43664c-0.35097,0 -0.70606,-0.01238 -1.06116,-0.03303c-164.61626,-10.55793 -314.30193,-108.23845 -390.63535,-254.92645a16.52439,16.52439 0 0 1 14.6498,-24.14245l524.64723,0a16.52439,16.52439 0 0 1 14.16258,25.00955l-147.60877,246.06967a16.49961,16.49961 0 0 1 -14.15433,8.02271zm-348.84129,-246.06967c72.57187,120.1631 199.89058,200.08051 339.91845,212.31484l127.36,-212.31484l-467.27845,0z" fill="#6E6E96" p-id="130944" id="svg_10"/>
  <path d="m127.47974,292.16619l-4.91355,0c-42.39277,69.46271 -66.82426,151.08542 -66.82426,238.41446c0,76.20128 18.61781,148.04645 51.52207,211.27019l284.82477,0l-264.60903,-449.68465z" fill="#EABDFF" p-id="130945" id="svg_11"/>
  <path d="m392.08877,758.36697l-284.82477,0a16.51613,16.51613 0 0 1 -14.64981,-8.88981c-34.92748,-67.10503 -53.38838,-142.79845 -53.38838,-218.89651c0,-87.37859 23.94425,-172.79588 69.24387,-247.01936a16.52026,16.52026 0 0 1 14.10064,-7.91123l4.91355,0a16.51613,16.51613 0 0 1 14.23277,8.13833l264.60904,449.68877a16.51613,16.51613 0 0 1 -14.23691,24.88981zm-274.67561,-33.03226l245.79716,0l-238.05109,-404.54607c-34.67149,64.18581 -52.90116,136.24155 -52.90116,209.79201c0,68.47174 15.18658,133.93754 45.15509,194.75406z" fill="#6E6E96" p-id="130946" id="svg_12"/>
  <path d="m762.65187,161.49884c99.56335,79.03793 163.42709,201.11277 163.42709,338.11406c0,238.30297 -193.1809,431.48387 -431.48387,431.48387c-216.17135,0 -395.20619,-158.96774 -426.59509,-366.37729c13.41109,236.51923 209.42864,424.18375 449.30477,424.18375c248.56361,0 450.06452,-201.50091 450.06452,-450.06452c0,-158.0511 -81.48233,-297.05084 -204.71742,-377.33987z" fill="#6E6E96" opacity="0.15" p-id="130947" id="svg_13"/>
  <path d="m114.70272,300.42426l192.52025,392.56774l-208.22297,0l7.87407,48.85884l284.82477,0l-276.99612,-441.42658z" fill="#6E6E96" opacity="0.15" p-id="130948" id="svg_14"/>
  <path d="m449,929.7933l159.54581,-186.79329l-90.26477,188.62658l-69.28104,-1.83329z" fill="#6E6E96" opacity="0.15" p-id="130949" id="svg_15"/>
  <path d="m658.00002,333.00002l237.8529,326.90787l-23.06064,48.72258l-214.79226,-375.63045z" fill="#6E6E96" opacity="0.15" p-id="130950" id="svg_16"/>
  <path d="m414.01703,272.92077l448.65651,0l24.95587,46.38968l-499.62942,0l26.01704,-46.38968z" fill="#6E6E96" opacity="0.15" p-id="130951" id="svg_17"/>
  <path d="m244.30245,483.78632l236.11045,-410.2978l42.30607,-1.1231l-258.79949,465.23045l-19.61703,-53.80955z" fill="#6E6E96" opacity="0.15" p-id="130952" id="svg_18"/>
  <path d="m734.99997,562.37419l96.26426,207.52929l23.46529,-32.0578l-101.376,-207.26504l-18.35355,31.79355z" fill="#6E6E96" opacity="0.15" p-id="130953" id="svg_19"/>
 </g>

</svg>