<svg width="1024" height="1024" xmlns="http://www.w3.org/2000/svg" p-id="26042" version="1.1" class="icon" t="1741541149673">
 <g>
  <title>Layer 1</title>
  <path d="m870.4,0l-716.8,0c-81.92,0 -153.6,71.68 -153.6,153.6l0,716.8c0,81.92 71.68,153.6 153.6,153.6l716.8,0c81.92,0 153.6,-71.68 153.6,-153.6l0,-716.8c0,-81.92 -71.68,-153.6 -153.6,-153.6zm-71.68,849.92c-51.2,51.2 0,0 0,0" fill="#c6bcc3" p-id="81107" id="svg_0"/>
  <path id="svg_1" p-id="26043" fill="#191919" d="m699.73333,221.86667l-375.46667,0a102.4,102.4 0 0 0 -102.4,102.4l0,375.46666a102.4,102.4 0 0 0 102.4,102.4l375.46667,0a102.4,102.4 0 0 0 102.4,-102.4l0,-375.46666a102.4,102.4 0 0 0 -102.4,-102.4zm-375.46667,68.26666l375.46667,0a34.13333,34.13333 0 0 1 34.13333,34.13334l0,375.46666a34.13333,34.13333 0 0 1 -34.13333,34.13334l-375.46667,0a34.13333,34.13333 0 0 1 -34.13333,-34.13334l0,-375.46666a34.13333,34.13333 0 0 1 34.13333,-34.13334z"/>
  <path id="svg_2" p-id="26044" fill="#191919" d="m580.45186,51.2c43.8272,0 82.61973,27.83573 96.37546,67.65227l1.24587,3.8912l36.608,104.96a34.13333,34.13333 0 0 1 -63.488,24.95146l-0.95573,-2.47466l-37.08587,-106.3936a34.11627,34.11627 0 0 0 -29.9008,-24.20054l-2.79893,-0.11946l-137.3184,0c-14.14827,0 -26.70934,8.68693 -32.17067,22.86933l-37.61493,107.84427a34.13333,34.13333 0 0 1 -65.2288,-19.93387l0.78506,-2.56l36.13014,-103.49227a102.38293,102.38293 0 0 1 93.86666,-72.9088l4.23254,-0.08533l137.3184,0zm69.7856,722.61973a34.13333,34.13333 0 0 1 65.2288,19.93387l-0.78507,2.56l-36.13013,103.49227a102.38293,102.38293 0 0 1 -93.86667,72.9088l-4.23253,0.08533l-137.3184,0c-43.8272,0 -82.61974,-27.83573 -96.37547,-67.65227l-1.24587,-3.8912l-36.608,-104.96a34.13333,34.13333 0 0 1 63.488,-24.95146l0.95574,2.47466l37.08586,106.3936a34.11627,34.11627 0 0 0 29.9008,24.20054l2.79894,0.11946l137.3184,0c14.14826,0 26.70933,-8.68693 32.17066,-22.86933l37.61494,-107.84427zm157.83253,-426.0864a42.66667,42.66667 0 0 1 42.58133,39.86774l0.08534,2.79893l0,51.2a42.66667,42.66667 0 0 1 -85.23094,2.79893l-0.1024,-2.79893l0,-51.2a42.66667,42.66667 0 0 1 42.66667,-42.66667z"/>
  <path id="svg_3" p-id="26045" fill="#56aaff" d="m512.00002,375.46667a136.53333,136.53333 0 0 0 0,273.06666a136.53333,136.53333 0 0 0 0,-273.06666zm0,68.26666a68.26667,68.26667 0 0 1 0,136.53334a68.26667,68.26667 0 0 1 0,-136.53334z"/>
 </g>
</svg>