<svg t="1741541149673" class="icon" viewBox="0 0 1024 1024" version="1.1" xmlns="http://www.w3.org/2000/svg" p-id="26042" width="1024" height="1024">
  <path id="svg_0" p-id="81107" fill="#c6bcc3" d="m870.4,0l-716.8,0c-81.92,0 -153.6,71.68 -153.6,153.6l0,716.8c0,81.92 71.68,153.6 153.6,153.6l716.8,0c81.92,0 153.6,-71.68 153.6,-153.6l0,-716.8c0,-81.92 -71.68,-153.6 -153.6,-153.6zm-71.68,849.92c-51.2,51.2"/>
  <path d="M665.6 221.866667H290.133333a102.4 102.4 0 0 0-102.4 102.4v375.466666a102.4 102.4 0 0 0 102.4 102.4h375.466667a102.4 102.4 0 0 0 102.4-102.4V324.266667a102.4 102.4 0 0 0-102.4-102.4z m-375.466667 68.266666h375.466667a34.133333 34.133333 0 0 1 34.133333 34.133334v375.466666a34.133333 34.133333 0 0 1-34.133333 34.133334H290.133333a34.133333 34.133333 0 0 1-34.133333-34.133334V324.266667a34.133333 34.133333 0 0 1 34.133333-34.133334z" fill="#9091b0" p-id="26043"></path>
  <path d="M546.525867 51.2c43.8272 0 82.619733 27.835733 96.375466 67.652267l1.245867 3.8912 36.608 104.96a34.133333 34.133333 0 0 1-63.488 24.951466l-0.955733-2.474666-37.085867-106.3936a34.116267 34.116267 0 0 0-29.9008-24.200534L546.525867 119.466667h-137.3184c-14.148267 0-26.709333 8.686933-32.170667 22.869333l-37.614933 107.844267a34.133333 34.133333 0 0 1-65.2288-19.933867l0.785066-2.56 36.130134-103.492267a102.382933 102.382933 0 0 1 93.866666-72.9088L409.207467 51.2h137.3184zM616.311467 773.819733a34.133333 34.133333 0 0 1 65.2288 19.933867l-0.785067 2.56-36.130133 103.492267a102.382933 102.382933 0 0 1-93.866667 72.9088l-4.232533 0.085333h-137.3184c-43.8272 0-82.619733-27.835733-96.375467-67.652267l-1.245867-3.8912-36.608-104.96a34.133333 34.133333 0 0 1 63.488-24.951466l0.955734 2.474666 37.085866 106.3936a34.116267 34.116267 0 0 0 29.9008 24.200534l2.798934 0.119466h137.3184c14.148267 0 26.709333-8.686933 32.170666-22.869333l37.614934-107.844267zM774.144 347.733333a42.666667 42.666667 0 0 1 42.581333 39.867734l0.085334 2.798933v51.2a42.666667 42.666667 0 0 1-85.230934 2.798933l-0.1024-2.798933v-51.2a42.666667 42.666667 0 0 1 42.666667-42.666667z" fill="#9091b0" p-id="26044"></path>
  <path d="M477.866667 375.466667a136.533333 136.533333 0 0 0 0 273.066666 136.533333 136.533333 0 0 0 0-273.066666z m0 68.266666a68.266667 68.266667 0 0 1 0 136.533334 68.266667 68.266667 0 0 1 0-136.533334z" fill="#d99eab" p-id="26045"></path>
</svg>