<svg t="1741449219326" class="icon" viewBox="0 0 1024 1024" version="1.1" xmlns="http://www.w3.org/2000/svg" p-id="95358" width="1024" height="1024">
  <path id="svg_0" p-id="81107" fill="#55C9BF" d="m870.4,0l-716.8,0c-81.92,0 -153.6,71.68 -153.6,153.6l0,716.8c0,81.92 71.68,153.6 153.6,153.6l716.8,0c81.92,0 153.6,-71.68 153.6,-153.6l0,-716.8c0,-81.92 -71.68,-153.6 -153.6,-153.6zm-71.68,849.92c-51.2,51.2"/>
  <path id="svg_1" p-id="95359" fill="#ffffff" d="M321.863 332.228c0 65.368 34.863 125.757 91.479 158.459 56.616 32.685 126.343 32.685 182.959 0 56.616-32.702 91.479-93.091 91.479-158.459 0-101.057-81.885-182.959-182.959-182.959-101.037 0-182.958 81.902-182.958 182.959z m253.638 228.57H448.389C317.835 560.834 212 666.669 212 797.224c0 42.755 34.68 77.508 77.563 77.508h444.909c42.811 0 77.527-34.698 77.527-77.508-0.109-130.555-105.944-236.334-236.498-236.426z m0 0"></path>
</svg>