<svg t="1741458053239" class="icon" viewBox="0 0 1024 1024" version="1.1" xmlns="http://www.w3.org/2000/svg" p-id="177440" width="1024" height="1024">
  <path id="svg_0" p-id="81107" fill="#73AE52" d="m870.4,0l-716.8,0c-81.92,0 -153.6,71.68 -153.6,153.6l0,716.8c0,81.92 71.68,153.6 153.6,153.6l716.8,0c81.92,0 153.6,-71.68 153.6,-153.6l0,-716.8c0,-81.92 -71.68,-153.6 -153.6,-153.6zm-71.68,849.92c-51.2,51.2"/>
  <path d="M432 322H152c-16.57 0-30-13.43-30-30s13.43-30 30-30h280c16.57 0 30 13.43 30 30s-13.43 30-30 30z" p-id="177441" fill="#FBF1D7"></path>
  <path d="M292 462c-16.57 0-30-13.43-30-30V152c0-16.57 13.43-30 30-30s30 13.43 30 30v280c0 16.57-13.43 30-30 30zM390.99 902c-7.68 0-15.35-2.93-21.21-8.79L171.79 695.22c-11.72-11.72-11.72-30.7 0-42.42s30.7-11.72 42.42 0L412.2 850.79c11.72 11.72 11.72 30.7 0 42.42-5.85 5.86-13.53 8.79-21.21 8.79z" p-id="177442" fill="#FBF1D7"></path>
  <path d="M193.01 902c-7.68 0-15.35-2.93-21.21-8.79-11.72-11.72-11.72-30.7 0-42.42L369.78 652.8c11.72-11.72 30.7-11.72 42.42 0s11.72 30.7 0 42.42L214.22 893.21a29.91 29.91 0 0 1-21.21 8.79z" p-id="177443" fill="#FBF1D7"></path>
  <path d="M872 322H592c-16.56 0-30-13.43-30-30s13.44-30 30-30h280c16.56 0 30 13.43 30 30s-13.44 30-30 30z" p-id="177444" fill="#FBF1D7"></path>
  <path d="M872 743H592c-16.56 0-30-13.44-30-30s13.44-30 30-30h280c16.56 0 30 13.44 30 30s-13.44 30-30 30zM872 863H592c-16.56 0-30-13.44-30-30s13.44-30 30-30h280c16.56 0 30 13.44 30 30s-13.44 30-30 30z" p-id="177445" fill="#FBF1D7"></path>
</svg>