<svg width="1024" height="1024" xmlns="http://www.w3.org/2000/svg" p-id="173061" version="1.1" class="icon" t="1741457920290">

 <g>
  <title>Layer 1</title>
  <path d="m870.4,0l-716.8,0c-81.92,0 -153.6,71.68 -153.6,153.6l0,716.8c0,81.92 71.68,153.6 153.6,153.6l716.8,0c81.92,0 153.6,-71.68 153.6,-153.6l0,-716.8c0,-81.92 -71.68,-153.6 -153.6,-153.6zm-71.68,849.92c-51.2,51.2 0,0 0,0" fill="#ffffff" p-id="81107" id="svg_0"/>
  <path id="svg_1" p-id="173062" fill="#8289AD" d="m230.27199,106.66669l409.81333,0l204.864,202.66666l0,557.33334c0,27.98933 -22.912,50.66666 -51.2,50.66666l-563.49866,0c-28.288,0 -51.2,-22.67733 -51.2,-50.66666l0,-709.33334c0,-27.98933 22.912,-50.66666 51.2,-50.66666l0.02133,0z"/>
  <path id="svg_2" p-id="173063" fill="#FFFFFF" d="m533.248,714.66667l0,-286.80534l112.23467,0l0,-31.70133l-260.56534,0l0,31.68l112.256,0l0,286.82667l36.07467,0z"/>
  <path id="svg_3" p-id="173064" fill="#CDCFDE" d="m643.264,106.66667l204.88533,202.66666l-154.21866,0a50.66667,50.66667 0 0 1 -50.66667,-50.66666l0,-152z"/>
 </g>
</svg>