<svg t="1741457920290" class="icon" viewBox="0 0 1024 1024" version="1.1" xmlns="http://www.w3.org/2000/svg" p-id="173061" width="1024" height="1024">
  <path id="svg_0" p-id="81107" fill="#ffffff" d="m870.4,0l-716.8,0c-81.92,0 -153.6,71.68 -153.6,153.6l0,716.8c0,81.92 71.68,153.6 153.6,153.6l716.8,0c81.92,0 153.6,-71.68 153.6,-153.6l0,-716.8c0,-81.92 -71.68,-153.6 -153.6,-153.6zm-71.68,849.92c-51.2,51.2"/>
  <path d="M233.472 106.666667h409.813333l204.864 202.666666v557.333334c0 27.989333-22.912 50.666667-51.2 50.666666H233.450667c-28.288 0-51.2-22.677333-51.2-50.666666V157.333333C182.250667 129.344 205.162667 106.666667 233.450667 106.666667z" fill="#8289AD" p-id="173062"></path><path d="M533.248 714.666667V427.861333h112.234667V396.16H384.917333v31.68h112.256V714.666667z" fill="#FFFFFF" p-id="173063"></path><path d="M643.264 106.666667l204.885333 202.666666h-154.218666a50.666667 50.666667 0 0 1-50.666667-50.666666V106.666667z" fill="#CDCFDE" p-id="173064"></path>
</svg>