<svg t="1741456319223" class="icon" viewBox="0 0 1024 1024" version="1.1" xmlns="http://www.w3.org/2000/svg" p-id="135536" width="1024" height="1024">
  <path id="svg_0" p-id="81107" fill="#98B6C2" d="m870.4,0l-716.8,0c-81.92,0 -153.6,71.68 -153.6,153.6l0,716.8c0,81.92 71.68,153.6 153.6,153.6l716.8,0c81.92,0 153.6,-71.68 153.6,-153.6l0,-716.8c0,-81.92 -71.68,-153.6 -153.6,-153.6zm-71.68,849.92c-51.2,51.2"/>
  <path d="M501.527273 93.370182c20.852364-0.325818 45.381818-1.303273 62.277818 4.049454 7.68 46.359273 22.528 57.530182 30.999273 108.869819 31.418182 4.608 52.736 26.298182 79.918545 31.744 41.751273-30.254545 59.624727-27.461818 97.373091-54.69091 27.880727 18.711273 51.805091 42.589091 70.469818 70.330182-27.322182 37.655273-24.994909 55.063273-55.249454 96.721455l17.221818 35.374545 16.384 46.219637c51.106909 8.145455 62.370909 22.946909 108.544 30.254545 1.908364 33.28 1.908364 66.56 0 99.84-46.685091 7.633455-58.647273 21.876364-110.359273 30.301091-3.444364 31.697455-25.227636 52.875636-31.790545 79.778909 30.254545 42.263273 27.927273 61.160727 55.249454 99.328l-17.221818 20.48c-15.639273 18.432-33.512727 34.909091-53.248 49.058909-38.260364-27.554909-56.832-25.972364-99.188364-56.506182-24.482909 14.196364-51.106909 22.109091-79.918545 33.512728-8.145455 51.386182-22.621091 63.348364-29.975273 109.707636-30.487273 0.698182-71.028364 7.261091-100.072727-0.837818-7.354182-46.312727-21.550545-58.368-29.789091-109.754182-30.161455-4.328727-56.413091-20.293818-79.872-32.581818-32.069818 22.900364-42.496 15.266909-71.493818 35.979636-6.144 4.282182-23.04 21.224727-28.672 18.804364-29.323636-13.544727-47.010909-47.755636-69.725091-68.701091 27.601455-38.167273 25.832727-57.111273 56.413091-99.421091-12.055273-24.482909-27.229091-48.965818-32.721455-79.778909-51.712-8.424727-63.860364-22.574545-110.592-30.254546-0.512-17.733818-8.378182-87.877818 1.629091-98.955636 46.219636-7.633455 57.856-22.760727 108.962909-31.185454 4.514909-28.858182 19.269818-57.344 32.721455-78.848-23.272727-32.023273-15.685818-41.844364-36.724364-70.749091-4.794182-6.842182-22.202182-25.646545-16.384-31.045819 9.681455-20.945455 48.128-53.899636 67.211637-67.118545 38.027636 27.275636 56.413091 24.482909 98.490181 54.690909l58.088728-26.298182 22.714181-6.330182c8.192-51.339636 22.434909-62.370909 29.789091-108.776727l38.539637-3.258182z m0.325818 259.909818c-14.382545 5.585455-30.487273 4.375273-43.52 9.495273a161.792 161.792 0 0 0-93.835636 94.021818c-36.631273 93.509818 27.089455 176.314182 91.787636 201.634909 18.571636 7.261091 46.731636 15.546182 74.100364 10.845091 64.605091-11.077818 107.892364-43.101091 130.56-95.418182 39.191273-90.577455-16.989091-179.2-80.942546-207.034182-22.016-9.588364-45.754182-13.684364-78.196364-13.498182z" fill="#ffffff" p-id="135537"></path>
</svg>