<svg width="1024" height="1024" xmlns="http://www.w3.org/2000/svg" p-id="220252" version="1.1" class="icon" t="1741459546206">
 <g>
  <title>Layer 1</title>
  <path d="m870.4,0l-716.8,0c-81.92,0 -153.6,71.68 -153.6,153.6l0,716.8c0,81.92 71.68,153.6 153.6,153.6l716.8,0c81.92,0 153.6,-71.68 153.6,-153.6l0,-716.8c0,-81.92 -71.68,-153.6 -153.6,-153.6zm-71.68,849.92c-51.2,51.2 0,0 0,0" fill="#011955" p-id="81107" id="svg_0"/>
  <path id="svg_1" fill="#f3b62f" p-id="220253" d="m645.47074,373.66779c26.69986,-29.12711 58.25423,-72.81777 58.25423,-118.9357c0,-26.69985 -7.28178,-48.54518 -24.2726,-65.536c-31.55437,-31.55437 -87.38133,-31.55437 -150.49007,-31.55437l-46.11793,0c-58.25422,0 -106.7994,-2.42726 -138.35377,29.12711c-16.99082,16.99082 -24.2726,38.83615 -24.2726,67.96326c0,65.536 58.25422,123.79022 84.95408,145.63556c9.70903,9.70903 26.69985,7.28177 33.98163,-2.42726c9.70903,-9.70904 7.28177,-26.69985 -2.42726,-33.98163c-41.26341,-36.40889 -67.96326,-77.6723 -67.96326,-109.22667c0,-24.27259 7.28178,-31.55437 9.70904,-33.98163c16.99081,-14.56355 58.25422,-14.56355 104.37214,-14.56355l50.97245,0c50.97244,0 99.51763,0 116.50844,16.99081c0,2.42726 7.28178,9.70904 7.28178,31.55437c0,29.12711 -26.69985,70.39052 -70.39052,106.79941c-7.28178,4.85452 -9.70904,14.56355 -7.28178,21.84533c2.42726,7.28178 7.28178,14.56356 14.56356,19.41807c89.80859,33.98163 184.4717,126.21749 184.4717,252.43497c0,118.9357 -72.81778,162.62637 -266.99852,162.62637s-266.99851,-43.69067 -266.99851,-162.62637c0,-72.81778 33.98163,-145.63556 94.66311,-199.03526c9.70903,-9.70904 12.13629,-24.27259 2.42726,-33.98163c-9.70904,-9.70904 -24.2726,-12.1363 -33.98163,-2.42726c-70.39052,63.10874 -111.65393,148.06281 -111.65393,235.44415c0,211.17155 213.59882,211.17155 315.5437,211.17155c101.94489,0 315.54371,0 315.54371,-211.17155c2.42726,-116.50845 -72.81778,-225.73511 -182.04445,-281.56208zm0,0"/>
  <path id="svg_2" fill="#f3b62f" p-id="220254" d="m606.66309,492.65778c9.70904,-9.70904 9.70904,-24.2726 0,-33.98163c-9.70903,-9.70904 -24.27259,-9.70904 -33.98162,0l-60.68149,58.25422l-60.68148,-58.25422c-9.70903,-9.70904 -24.27259,-9.70904 -33.98163,0c-9.70903,9.70904 -9.70903,24.27259 0,33.98163l67.96326,65.536l0,14.56355l-48.54518,0c-14.56356,0 -24.2726,9.70904 -24.2726,24.2726c0,14.56355 9.70904,24.27259 24.2726,24.27259l48.54518,0l0,24.27259l-48.54518,0c-14.56356,0 -24.2726,9.70904 -24.2726,24.27259c0,14.56356 9.70904,24.2726 24.2726,24.2726l48.54518,0l0,50.97244c0,14.56356 9.70904,24.27259 24.27259,24.27259c14.56356,0 24.2726,-9.70903 24.2726,-24.27259l0,-50.97244l48.54518,0c14.56356,0 24.2726,-9.70904 24.27259,-24.2726c0,-14.56355 -9.70903,-24.27259 -24.27259,-24.27259l-48.54518,0l0,-24.27259l48.54518,0c14.56356,0 24.2726,-9.70904 24.27259,-24.27259c0,-14.56356 -9.70903,-24.2726 -24.27259,-24.2726l-48.54518,0l0,-9.70903l72.81777,-70.39052zm0,0"/>
 </g>
</svg>