<svg width="1024" height="1024" xmlns="http://www.w3.org/2000/svg" p-id="32687" version="1.1" class="icon" t="1741541720782">
 <g>
  <title>Layer 1</title>
  <path d="m870.4,0l-716.8,0c-81.92,0 -153.6,71.68 -153.6,153.6l0,716.8c0,81.92 71.68,153.6 153.6,153.6l716.8,0c81.92,0 153.6,-71.68 153.6,-153.6l0,-716.8c0,-81.92 -71.68,-153.6 -153.6,-153.6zm-71.68,849.92c-51.2,51.2 0,0 0,0" fill="#f2f0eb" p-id="81107" id="svg_0"/>
  <path id="svg_1" p-id="32688" fill="#002fa7" d="m638.40002,192c-76.8,0 -92.8,92.8 -92.8,124.8l0,515.2l76.8,-28.8c12.8,-6.4 25.6,-9.6 41.6,-12.8c12.8,-3.2 28.8,-3.2 41.6,-3.2l160,0l0,-595.2l-227.2,0zm-256,0c76.8,0 92.8,92.8 92.8,124.8l0,515.2l-76.8,-28.8c-12.8,-6.4 -25.6,-9.6 -41.6,-12.8c-12.8,-3.2 -28.8,-3.2 -41.6,-3.2l-156.8,0l0,-595.2l224,0z"/>
 </g>
</svg>